<svg width="32" height="32" viewBox="0 0 32 32" fill="none" xmlns="http://www.w3.org/2000/svg">
<path d="M31.896 23.7539C32.0508 23.4797 32.0314 23.1518 31.8454 22.8978C31.6781 22.6695 31.4129 22.5522 31.1371 22.5779C30.8033 22.0911 18.6948 4.43231 18.0827 3.53956V1.75781C18.0827 1.49894 17.8728 1.28906 17.6139 1.28906C17.3551 1.28906 17.1452 1.49887 17.1452 1.75781V2.38387L8.04276 18.4434H7.5697C7.31082 18.4434 7.10095 18.6532 7.10095 18.9121C7.10095 19.1711 7.31082 19.3809 7.5697 19.3809H17.1453V20.3824H12.3967C11.9387 20.3824 11.5046 20.6037 11.2354 20.9746L10.5748 21.8852C10.4228 22.0947 10.4694 22.3879 10.6789 22.5399C10.8884 22.6919 11.1815 22.6452 11.3336 22.4357L11.9941 21.5251C12.0874 21.3966 12.2379 21.3198 12.3966 21.3198H18.489C19.6616 21.3198 20.8132 21.7218 21.7316 22.4518L23.3323 23.7239C22.7675 23.781 22.1878 23.8354 21.5931 23.8872C20.2287 22.7143 19.2668 22.1891 18.489 22.1891H12.9829C12.7348 22.1891 12.4996 22.309 12.3534 22.5102L10.9216 24.4842C10.5593 24.4956 10.1936 24.5063 9.82451 24.5164L10.0368 24.2237C10.1888 24.0142 10.1422 23.7211 9.93264 23.5691C9.72301 23.4171 9.42995 23.4638 9.27801 23.6733L8.64489 24.5461C6.17164 24.6036 3.55301 24.6339 0.790761 24.6368C0.517386 24.6371 0.267386 24.7754 0.121949 25.0068C-0.0236135 25.2384 -0.0398635 25.5239 0.078574 25.7706L2.23589 30.2661C2.36507 30.5353 2.64157 30.7094 2.94026 30.7094H19.0536C19.3125 30.7094 19.5224 30.4996 19.5224 30.2406C19.5224 29.9817 19.3125 29.7719 19.0536 29.7719H3.03845L1.97789 27.5619C13.8074 27.4871 23.0899 26.9109 29.6031 25.8477C28.5861 27.5752 27.6453 29.1208 27.2926 29.6976C27.2642 29.7441 27.2145 29.7718 27.1596 29.7718H21.2408C20.9819 29.7718 20.7721 29.9816 20.7721 30.2406C20.7721 30.4995 20.9819 30.7093 21.2408 30.7093H27.1596C27.5379 30.7093 27.8953 30.509 28.0924 30.1866C28.5051 29.5118 31.5844 24.3058 31.896 23.7539ZM29.2609 21.4998H22.0207C21.2242 20.9416 20.3026 20.5793 19.3423 20.4437C19.8935 19.2912 20.2471 17.8337 20.3939 16.0959C20.592 13.7513 20.4026 10.9504 19.8309 7.74694L29.2609 21.4998ZM9.12032 18.4434L17.1449 4.28562V18.4434H9.12032ZM18.0828 5.19731L18.4836 5.78194C20.4063 14.5684 19.2758 18.6487 18.321 20.3823H18.0827V5.19731H18.0828ZM23.2201 22.4373H29.9039L30.1348 22.774C28.5266 23.0809 26.7001 23.3501 24.6601 23.5816L23.2201 22.4373ZM20.2413 23.9984C18.9629 24.0974 17.6213 24.1852 16.2159 24.2613V23.1267H18.489C18.887 23.1267 19.4748 23.4199 20.2413 23.9984ZM13.0644 23.1267H15.2784V24.3099C14.2539 24.3606 13.1973 24.4056 12.1085 24.4446L13.0644 23.1267ZM1.5292 26.6269L1.02389 25.5739C14.3144 25.5524 24.2956 24.894 30.7124 23.6162L30.72 23.6274C30.7501 23.6712 30.7868 23.7078 30.8272 23.7378C30.6286 24.0862 30.425 24.4396 30.2203 24.7923C23.6508 25.9445 14.001 26.5616 1.5292 26.6269Z" fill="#111111"/>
</svg>
