<svg width="32" height="32" viewBox="0 0 32 32" fill="none" xmlns="http://www.w3.org/2000/svg">
<g clip-path="url(#clip0_1439_329)">
<path d="M31.9153 12.9414C31.8222 12.8039 31.6669 12.7215 31.5009 12.7215H29.9515V10.6956C29.9515 10.4192 29.7275 10.1951 29.451 10.1951H17.2797L16.7415 9.66556C16.6479 9.57344 16.5218 9.52188 16.3905 9.52188H15.1392L13.6162 8.02487C13.5226 7.93287 13.3965 7.88131 13.2654 7.88131H11.3298V7.42863C11.3298 6.6835 10.7655 6.06794 10.0418 5.98625V4.64894C10.0418 4.3725 9.81773 4.14844 9.5413 4.14844C9.26486 4.14844 9.0408 4.3725 9.0408 4.64894V5.98625C8.31617 6.06787 7.75105 6.68344 7.75105 7.42863V7.88131H4.25292C4.03549 7.88131 3.84286 8.02175 3.77642 8.22875C3.70992 8.43581 3.78473 8.66213 3.96148 8.78869L5.8848 10.1661L3.09705 15.0383L2.68411 15.1011C2.48567 15.1313 2.32448 15.2771 2.27461 15.4715L1.86198 17.0785L0.497422 17.0868C0.32086 17.0878 0.15786 17.1819 0.0686722 17.3343C-0.0206403 17.4866 -0.0229528 17.6747 0.0624222 17.8293L1.81986 21.0094C1.90798 21.1689 2.07573 21.2678 2.25792 21.2678H24.0546C24.1307 21.2678 24.2057 21.2505 24.2741 21.2171C29.2768 18.7759 30.9695 15.8994 31.9655 13.4076C32.0272 13.2536 32.0084 13.0788 31.9153 12.9414ZM28.9505 12.7215H26.1425V11.1961H28.9506V12.7215H28.9505ZM22.3689 12.7215V11.1961H25.1415V12.7215H22.3689ZM21.3679 11.1961V12.7215H19.8419C19.8292 12.7056 19.8159 12.6902 19.8011 12.6756L18.2972 11.1961H21.3679ZM18.4204 12.7215H18.364C18.3389 12.7215 18.3137 12.7234 18.2888 12.7272L13.826 13.4061V10.5229H16.1855L18.4204 12.7215ZM12.825 10.5229V13.5584L9.84149 14.0123V10.5229H12.825ZM8.75198 7.42869C8.75198 7.18006 8.95505 6.97781 9.20461 6.97781H9.8778C10.1265 6.97781 10.3287 7.18006 10.3287 7.42869V7.88137H8.75192V7.42869H8.75198ZM13.0605 8.88231L13.7112 9.52188H6.7043L5.8113 8.88231H13.0605ZM6.83386 10.5229H8.84048V14.1646L4.36011 14.8462L6.83386 10.5229ZM23.9384 20.267H2.55317L1.34611 18.0827L2.25392 18.0773H27.42C26.5069 18.8254 25.3717 19.5593 23.9384 20.267ZM28.5083 17.0762H2.89605L3.1618 16.0411L18.4019 13.7225H30.7459C30.2467 14.8336 29.5802 15.9644 28.5083 17.0762ZM9.2728 19.134C9.2728 19.4104 9.04873 19.6345 8.7723 19.6345H3.57961C3.30317 19.6345 3.07911 19.4104 3.07911 19.134C3.07911 18.8576 3.30317 18.6335 3.57961 18.6335H8.77236C9.0488 18.6335 9.2728 18.8576 9.2728 19.134ZM27.9797 15.1354C27.9797 15.4118 27.7556 15.6359 27.4792 15.6359H21.3652C21.0888 15.6359 20.8647 15.4118 20.8647 15.1354C20.8647 14.8589 21.0888 14.6349 21.3652 14.6349H27.4792C27.7556 14.6349 27.9797 14.8589 27.9797 15.1354ZM30.4087 24.2296C30.5504 24.4669 30.4729 24.7741 30.2355 24.9158C29.8971 25.1179 29.4435 25.3498 28.9354 25.3498C28.2514 25.3498 27.6409 24.962 27.0505 24.587C26.5809 24.2888 26.0953 23.9803 25.7022 23.9803C25.308 23.9803 24.8224 24.2889 24.3526 24.5874C23.7627 24.9622 23.1529 25.3498 22.4689 25.3498C21.7839 25.3498 21.1734 24.962 20.583 24.587C20.1134 24.2888 19.6278 23.9803 19.2339 23.9803C18.8408 23.9803 18.3552 24.2887 17.8855 24.587C17.2952 24.962 16.6847 25.3498 16.0006 25.3498C15.3154 25.3498 14.7048 24.9618 14.1142 24.5866C13.6451 24.2885 13.16 23.9803 12.7673 23.9803C12.3734 23.9803 11.8878 24.2887 11.4182 24.5871C10.8278 24.9621 10.2172 25.3498 9.53224 25.3498C8.84817 25.3498 8.23767 24.9621 7.6473 24.5871C7.17767 24.2887 6.69211 23.9803 6.29899 23.9803C5.90486 23.9803 5.41917 24.2889 4.94948 24.5874C4.35961 24.9622 3.74967 25.3498 3.06573 25.3498C2.55767 25.3498 2.10405 25.1179 1.76561 24.9158C1.5283 24.7741 1.4508 24.4669 1.59242 24.2296C1.73405 23.9922 2.04123 23.9146 2.27873 24.0564C2.61286 24.2559 2.86292 24.3488 3.06567 24.3488C3.45842 24.3488 3.94348 24.0406 4.41255 23.7426C5.00305 23.3674 5.61367 22.9794 6.29892 22.9794C6.98305 22.9794 7.59355 23.3671 8.18392 23.7421C8.65355 24.0404 9.13911 24.3489 9.53217 24.3489C9.92617 24.3489 10.4117 24.0404 10.8814 23.7421C11.4718 23.3671 12.0823 22.9794 12.7672 22.9794C13.4511 22.9794 14.0611 23.3669 14.651 23.7417C15.1207 24.0402 15.6064 24.3488 16.0005 24.3488C16.3936 24.3488 16.8792 24.0404 17.3489 23.7421C17.9392 23.3671 18.5497 22.9793 19.2338 22.9793C19.9187 22.9793 20.5292 23.3671 21.1196 23.7421C21.5893 24.0404 22.0749 24.3488 22.4689 24.3488C22.8616 24.3488 23.3467 24.0406 23.8157 23.7426C24.4062 23.3673 25.0169 22.9793 25.7022 22.9793C26.3862 22.9793 26.9967 23.3671 27.5871 23.7421C28.0567 24.0403 28.5423 24.3488 28.9354 24.3488C29.1381 24.3488 29.3882 24.2559 29.7223 24.0564C29.9597 23.9146 30.267 23.9922 30.4087 24.2296ZM30.4087 26.7294C30.5504 26.9668 30.4729 27.274 30.2355 27.4157C29.8971 27.6177 29.4435 27.8496 28.9355 27.8496C28.2514 27.8496 27.6409 27.4619 27.0505 27.0869C26.5809 26.7886 26.0954 26.4801 25.7023 26.4801C25.3081 26.4801 24.8224 26.7887 24.3527 27.0872C23.7628 27.4621 23.1529 27.8496 22.469 27.8496C21.784 27.8496 21.1734 27.4619 20.583 27.0869C20.1134 26.7886 19.6279 26.4801 19.2339 26.4801C18.8409 26.4801 18.3552 26.7886 17.8856 27.0869C17.2952 27.4619 16.6847 27.8496 16.0007 27.8496C15.3154 27.8496 14.7049 27.4616 14.1142 27.0864C13.6452 26.7884 13.1601 26.4802 12.7674 26.4802C12.3734 26.4802 11.8879 26.7886 11.4182 27.0869C10.8279 27.4619 10.2173 27.8497 9.5323 27.8497C8.84823 27.8497 8.23773 27.4619 7.64736 27.0869C7.17773 26.7886 6.69217 26.4802 6.29905 26.4802C5.90492 26.4802 5.41923 26.7888 4.94955 27.0872C4.35967 27.4621 3.74973 27.8496 3.0658 27.8496C2.5578 27.8496 2.10417 27.6178 1.76573 27.4157C1.52836 27.274 1.45086 26.9668 1.59255 26.7294C1.73417 26.4921 2.04142 26.4146 2.2788 26.5563C2.61305 26.7558 2.86311 26.8487 3.0658 26.8487C3.45855 26.8487 3.94361 26.5405 4.41267 26.2424C5.00317 25.8673 5.6138 25.4793 6.29905 25.4793C6.98317 25.4793 7.59367 25.867 8.18405 26.242C8.65367 26.5403 9.13923 26.8488 9.5323 26.8488C9.9263 26.8488 10.4119 26.5403 10.8815 26.242C11.4719 25.867 12.0824 25.4793 12.7674 25.4793C13.4512 25.4793 14.0612 25.8668 14.6511 26.2416C15.1209 26.5401 15.6065 26.8487 16.0007 26.8487C16.3937 26.8487 16.8794 26.5402 17.349 26.2419C17.9394 25.8669 18.5499 25.4792 19.2339 25.4792C19.9189 25.4792 20.5294 25.8669 21.1197 26.2419C21.5894 26.5402 22.075 26.8487 22.469 26.8487C22.8617 26.8487 23.3468 26.5405 23.8159 26.2424C24.4064 25.8672 25.017 25.4792 25.7023 25.4792C26.3864 25.4792 26.9969 25.8669 27.5872 26.2419C28.0569 26.5402 28.5424 26.8487 28.9355 26.8487C29.1382 26.8487 29.3882 26.7558 29.7225 26.5563C29.96 26.4145 30.2672 26.4922 30.4087 26.7294Z" fill="#111111"/>
</g>
<defs>
<clipPath id="clip0_1439_329">
<rect width="32" height="32" fill="white"/>
</clipPath>
</defs>
</svg>
