<svg width="32" height="32" viewBox="0 0 32 32" fill="none" xmlns="http://www.w3.org/2000/svg">
<g clip-path="url(#clip0_1439_294)">
<path d="M31.9218 20.168C31.8348 20.0368 31.6878 19.9578 31.5303 19.9578H30.717V16.3462H31.3422C31.6016 16.3462 31.8119 16.1359 31.8119 15.8765V14.1726C31.8119 13.9132 31.6016 13.7029 31.3422 13.7029H29.1596C28.9002 13.7029 28.6898 13.9131 28.6898 14.1726C28.6898 14.4321 28.9002 14.6424 29.1596 14.6424H30.8725V15.4068H23.1157V14.6424H27.2807C27.5401 14.6424 27.7504 14.4321 27.7504 14.1726C27.7504 13.9132 27.5401 13.7029 27.2807 13.7029H22.6459C22.3865 13.7029 22.1762 13.9131 22.1762 14.1726V15.8765C22.1762 16.1359 22.3865 16.3462 22.6459 16.3462H23.2711V19.9578H21.663V12.8905C21.663 12.6311 21.4527 12.4208 21.1932 12.4208H17.7048V5.35452C17.7048 5.09508 17.4945 4.88477 17.235 4.88477H9.31878C9.05935 4.88477 8.84903 5.09502 8.84903 5.35452V12.4208H5.36066C5.10122 12.4208 4.89091 12.6311 4.89091 12.8905V18.1566H0.465096C0.0820334 18.1447 -0.165404 18.6571 0.131096 18.9566C0.165596 18.9915 3.59778 22.4799 5.20816 25.6128C5.68478 26.54 6.62941 27.116 7.67347 27.116H10.1739C10.4333 27.116 10.6437 26.9057 10.6437 26.6462C10.6437 26.3868 10.4333 26.1765 10.1739 26.1765H7.67347C6.9831 26.1765 6.35866 25.7959 6.04372 25.1833C4.82685 22.816 2.69116 20.3353 1.55516 19.096H9.31747L10.9276 20.7546C11.016 20.8458 11.1377 20.8972 11.2647 20.8972H16.1001C16.3595 20.8972 16.5698 20.6869 16.5698 20.4275C16.5698 20.168 16.3595 19.9577 16.1001 19.9577H13.7467V13.3603H15.6303V15.4548C15.635 15.6921 15.8685 16.0019 16.2602 15.8965L17.235 15.5431L18.21 15.8965C18.4545 16.0034 18.8536 15.7926 18.8398 15.4548V13.3603H20.7235V19.9578H17.979C17.7196 19.9578 17.5093 20.1681 17.5093 20.4276C17.5093 20.6871 17.7196 20.8973 17.979 20.8973H30.822L29.0657 25.0559C28.7782 25.7366 28.1148 26.1765 27.3758 26.1765H12.0528C11.7934 26.1765 11.5831 26.3868 11.5831 26.6463C11.5831 26.9057 11.7934 27.116 12.0528 27.116H27.3758C28.4933 27.116 29.4963 26.4509 29.9312 25.4215L31.963 20.6104C32.0243 20.4653 32.0088 20.2992 31.9218 20.168ZM12.6117 5.82427H13.9422V7.24889L13.4369 7.06577C13.3335 7.0282 13.2202 7.0282 13.1168 7.06577L12.6117 7.24883V5.82427ZM9.78853 5.82427H11.6722V7.91883C11.666 8.21514 11.984 8.47045 12.302 8.36045L13.2768 8.00708L14.2519 8.36045C14.4963 8.46739 14.8955 8.25664 14.8817 7.91883V5.82427H16.7654V12.4208H9.78853V5.82427ZM8.65353 13.3603H9.9841V14.7849L9.47872 14.6018C9.37528 14.5642 9.26197 14.5642 9.15853 14.6018L8.65353 14.7848V13.3603ZM11.4633 19.9578L9.85322 18.2991C9.76478 18.208 9.64316 18.1566 9.51616 18.1566H5.83041V13.3603H7.7141V15.4548C7.70785 15.7511 8.02591 16.0065 8.34391 15.8965L9.31872 15.5431L10.2938 15.8965C10.5382 16.0034 10.9373 15.7926 10.9236 15.4548V13.3603H12.8073V19.9578H11.4633ZM17.9004 14.7849L17.395 14.6018C17.2916 14.5642 17.1783 14.5642 17.0749 14.6018L16.5698 14.7848V13.3603H17.9004V14.7849ZM24.2106 16.3462H29.7775V19.9578H24.2106V16.3462Z" fill="#111111"/>
<path d="M4.6875 20.5342C4.6875 20.9181 4.99988 21.2305 5.38381 21.2305C5.76775 21.2305 6.08013 20.9181 6.08013 20.5342C6.08013 20.1503 5.76775 19.8379 5.38381 19.8379C4.99988 19.8379 4.6875 20.1503 4.6875 20.5342Z" fill="#111111"/>
<path d="M7 20.5342C7 20.9181 7.31237 21.2305 7.69631 21.2305C8.08025 21.2305 8.39262 20.9181 8.39262 20.5342C8.39262 20.1503 8.08025 19.8379 7.69631 19.8379C7.31231 19.8379 7 20.1503 7 20.5342Z" fill="#111111"/>
<path d="M14.7774 18.1797H16.0102C16.2696 18.1797 16.4799 17.9695 16.4799 17.71C16.4799 17.4505 16.2696 17.2402 16.0102 17.2402H14.7774C14.5179 17.2402 14.3076 17.4505 14.3076 17.71C14.3076 17.9694 14.5179 18.1797 14.7774 18.1797Z" fill="#111111"/>
<path d="M14.7774 19.4434H17.2342C17.4936 19.4434 17.7039 19.2331 17.7039 18.9737C17.7039 18.7142 17.4936 18.5039 17.2342 18.5039H14.7774C14.5179 18.5039 14.3076 18.7142 14.3076 18.9737C14.3076 19.2332 14.5179 19.4434 14.7774 19.4434Z" fill="#111111"/>
<path d="M10.8213 10.6446H12.0541C12.3136 10.6446 12.5239 10.4343 12.5239 10.1748C12.5239 9.91539 12.3136 9.70508 12.0541 9.70508H10.8213C10.5619 9.70508 10.3516 9.91539 10.3516 10.1748C10.3516 10.4343 10.5619 10.6446 10.8213 10.6446Z" fill="#111111"/>
<path d="M10.8213 11.9082H13.2781C13.5376 11.9082 13.7479 11.6979 13.7479 11.4385C13.7479 11.1791 13.5376 10.9688 13.2781 10.9688H10.8213C10.5619 10.9688 10.3516 11.1791 10.3516 11.4385C10.3516 11.6979 10.5619 11.9082 10.8213 11.9082Z" fill="#111111"/>
<path d="M25.3994 17.3477C25.14 17.3477 24.9297 17.558 24.9297 17.8174V18.5181C24.9297 18.7775 25.14 18.9878 25.3994 18.9878C25.6589 18.9878 25.8692 18.7775 25.8692 18.5181V17.8174C25.8692 17.5579 25.6589 17.3477 25.3994 17.3477Z" fill="#111111"/>
<path d="M26.9932 17.3477C26.7337 17.3477 26.5234 17.558 26.5234 17.8174V18.5181C26.5234 18.7775 26.7337 18.9878 26.9932 18.9878C27.2526 18.9878 27.4629 18.7775 27.4629 18.5181V17.8174C27.4629 17.5579 27.2526 17.3477 26.9932 17.3477Z" fill="#111111"/>
<path d="M28.5899 17.3477C28.3304 17.3477 28.1201 17.558 28.1201 17.8174V18.5181C28.1201 18.7775 28.3304 18.9878 28.5899 18.9878C28.8493 18.9878 29.0596 18.7775 29.0596 18.5181V17.8174C29.0596 17.5579 28.8493 17.3477 28.5899 17.3477Z" fill="#111111"/>
</g>
<defs>
<clipPath id="clip0_1439_294">
<rect width="32" height="32" fill="white"/>
</clipPath>
</defs>
</svg>
