<svg width="32" height="32" viewBox="0 0 32 32" fill="none" xmlns="http://www.w3.org/2000/svg">
<g clip-path="url(#clip0_1439_309)">
<path d="M31.7655 16.6283L29.435 15.1683L23.015 9.77526C22.8409 9.62907 22.59 9.61882 22.4045 9.75026L21.8045 10.1763L18.244 8.06976C18.0063 7.92914 17.6997 8.00782 17.5591 8.24545C17.4978 8.34907 17.4759 8.47132 17.4975 8.58976L17.901 10.7958H16.669C16.3929 10.7958 16.169 11.0196 16.169 11.2958C16.169 11.5719 16.3929 11.7958 16.669 11.7958H18.3585L19.3035 12.3788L17.5165 12.7833C17.3333 12.8264 17.1891 12.9676 17.142 13.1498C17.1255 13.2128 16.7215 14.6878 14.784 14.6878C13.744 14.6878 12.8215 13.6093 12.813 13.5993C12.7397 13.5115 12.6386 13.4515 12.5265 13.4293L6.7765 12.2898C6.51013 12.2368 6.25012 12.4062 6.191 12.6713L5.927 13.8603L3.9315 13.5638C3.72675 13.5339 3.52481 13.6333 3.4235 13.8138L2.6245 15.2213C2.4885 15.4616 2.573 15.7666 2.81331 15.9027C2.82512 15.9094 2.83719 15.9156 2.8495 15.9213L4.978 16.9048L4.1615 17.4498L0.295 19.1873C0.1155 19.2679 0 19.4464 0 19.6433V23.4998C0 23.9998 0.45 23.9998 0.846 23.9998H5.235H22.317C28.28 23.9998 30.4715 20.7148 30.57 20.5623L31.9275 18.3153C31.9749 18.2372 31.9999 18.1476 32 18.0563V17.0498C31.9993 16.8784 31.9107 16.7193 31.7655 16.6283ZM20.871 12.1708L18.95 10.9868L18.676 9.48676L21.5725 11.1998C21.7422 11.3003 21.955 11.2916 22.116 11.1778L22.666 10.7873L27.89 15.1768L22.44 15.6343L18.9375 13.4873L20.72 13.0838C20.9891 13.0218 21.157 12.7534 21.0951 12.4843C21.0651 12.3539 20.9839 12.2409 20.87 12.1708H20.871ZM29.7235 20.0303C29.6435 20.1498 27.7035 22.9998 22.317 22.9998H15.076C9.546 22.9998 2.85 22.9998 1 22.9998V20.1783C2.2525 20.2588 5.5955 20.4448 9.741 20.4448C12.3835 20.4448 15.3485 20.3688 18.2975 20.1418C21.3705 19.9279 24.4235 19.4871 27.4315 18.8228C27.7008 18.7608 27.8687 18.4923 27.8067 18.223C27.7447 17.9538 27.4763 17.7858 27.207 17.8478C24.2474 18.501 21.2436 18.9345 18.22 19.1448C13.0068 19.4989 7.777 19.5391 2.559 19.2653L4.609 18.3433C4.63388 18.3319 4.65781 18.3185 4.6805 18.3033L6.2755 17.2423C6.50537 17.0893 6.56775 16.7789 6.41475 16.549C6.36363 16.4722 6.29225 16.411 6.2085 16.3723L3.7615 15.2408L4.122 14.6038L6.1245 14.9038C7.10837 15.5482 8.15063 16.0988 9.2375 16.5483C9.29813 16.5738 9.36325 16.587 9.429 16.5868C9.70512 16.5865 9.92881 16.3625 9.92863 16.0864C9.92844 15.8847 9.80719 15.7029 9.621 15.6253C8.66694 15.2275 7.748 14.7501 6.874 14.1983L7.0585 13.3678L12.17 14.3783C12.5155 14.7413 13.536 15.6878 14.784 15.6878C16.0466 15.7526 17.2381 15.1011 17.865 14.0033L21.015 15.9353C18.7543 16.4463 16.4432 16.7011 14.1255 16.6948C13.0836 16.6469 12.0526 16.4619 11.059 16.1448C10.7928 16.0714 10.5175 16.2278 10.4442 16.494C10.3741 16.7487 10.5141 17.014 10.764 17.0998C11.8419 17.4436 12.9606 17.6434 14.091 17.6938C14.297 17.7008 14.5043 17.7043 14.713 17.7043C17.3069 17.6366 19.8851 17.2801 22.4 16.6413L29.014 16.0858L30.392 16.9498C29.998 17.0883 29.4765 17.2578 28.8095 17.4438C28.5419 17.5117 28.38 17.7838 28.4479 18.0514C28.5159 18.3191 28.7879 18.4809 29.0556 18.413C29.0631 18.4111 29.0706 18.409 29.078 18.4068C29.934 18.1678 30.5665 17.9543 31 17.7943V17.9193L29.7235 20.0303Z" fill="#111111"/>
</g>
<defs>
<clipPath id="clip0_1439_309">
<rect width="32" height="32" fill="white"/>
</clipPath>
</defs>
</svg>
