<svg width="32" height="32" viewBox="0 0 32 32" fill="none" xmlns="http://www.w3.org/2000/svg">
<path d="M11.5029 22.3789C11.8481 22.3789 12.1279 22.0991 12.1279 21.7539C12.1279 21.4087 11.8481 21.1289 11.5029 21.1289C11.1578 21.1289 10.8779 21.4087 10.8779 21.7539C10.8779 22.0991 11.1578 22.3789 11.5029 22.3789Z" fill="#111111"/>
<path d="M31.8313 13.8012C31.5927 13.3854 31.1479 13.1434 30.6689 13.1678C30.6634 13.1681 30.6578 13.1685 30.6523 13.1689L27.4242 13.4245C27.412 13.4078 24.5072 10.1439 24.5072 10.1439C24.0159 9.59226 23.1952 9.45989 22.5544 9.82964C22.5544 9.82964 14.6013 14.4384 14.5987 14.4399L2.71248 15.381C2.08248 15.4308 1.54741 15.8509 1.34935 16.4509L0.0687877 20.3306C0.0659127 20.3394 0.0632252 20.3482 0.0607252 20.357C-0.0756498 20.8409 0.0201002 21.3483 0.323538 21.7491C0.626913 22.1499 1.08929 22.3798 1.59204 22.3798H8.69541C9.04123 22.3798 9.3216 22.0994 9.3216 21.7535C9.3216 21.4076 9.04123 21.1273 8.69541 21.1273H3.72304C9.54548 19.138 15.732 18.2155 20.1322 17.7885C23.6964 17.4426 26.6249 17.3639 28.2368 17.3511C25.5509 19.7588 22.0488 21.1273 18.3397 21.1273H14.3096C13.9638 21.1273 13.6834 21.4076 13.6834 21.7535C13.6834 22.0994 13.9637 22.3798 14.3096 22.3798H18.3397C21.006 22.3798 23.6545 21.7092 25.999 20.4406C28.3335 19.1773 30.3368 17.338 31.7922 15.1216C32.0545 14.7221 32.0695 14.2161 31.8313 13.8012V13.8012ZM23.1814 10.9138C23.3094 10.8398 23.4735 10.8664 23.5718 10.9768L25.8616 13.5483L23.567 13.7299L21.7705 11.7314L23.1814 10.9138ZM20.6632 12.3729L21.9949 13.8543L17.4912 14.2109L20.6632 12.3729ZM29.4748 16.1016C28.7038 16.0895 24.9644 16.0622 20.0302 16.54C11.1392 17.4011 4.97704 19.2381 1.26791 20.6934L2.53866 16.8434C2.57829 16.7234 2.68529 16.6394 2.81129 16.6294C2.81129 16.6294 30.74 14.4185 30.7402 14.4184C30.7433 14.4208 30.7474 14.428 30.7452 14.434C30.3577 15.0241 29.9328 15.5808 29.4748 16.1016Z" fill="#111111"/>
</svg>
