<svg width="32" height="32" viewBox="0 0 32 32" fill="none" xmlns="http://www.w3.org/2000/svg">
<path d="M31.8232 17.0813C30.195 20.3378 30.3012 20.2477 30.0242 20.3474C29.9179 20.3849 21.7294 20.9627 21.6627 20.9627C21.3854 20.9627 21.1513 20.7483 21.1313 20.4673C21.1103 20.1736 21.3315 19.9184 21.6252 19.8974L29.5037 19.3353L30.8692 16.6042C31.0733 16.196 30.746 15.7235 30.2913 15.7724L2.07848 18.8126C1.37984 18.8879 0.91833 19.5747 1.11112 20.2493L2.45693 24.9599C2.58705 25.4154 3.00877 25.7335 3.48248 25.7335H25.6455C26.0521 25.7335 26.4176 25.5076 26.5995 25.1439L27.9635 22.4158C28.0952 22.1524 28.4154 22.0458 28.679 22.1774C28.9424 22.3091 29.0492 22.6294 28.9174 22.8929L27.5534 25.6209C27.1898 26.3482 26.4587 26.8 25.6455 26.8H3.48255C2.53512 26.8 1.69169 26.1638 1.43137 25.2529L0.0855683 20.5424C-0.289348 19.2303 0.609611 17.8982 1.96428 17.7522L22.1972 15.5719L20.6456 13.1377L13.4908 13.4669C13.1974 13.4806 12.9471 13.2535 12.9336 12.9586C12.92 12.6644 13.1476 12.415 13.4418 12.4014L19.9844 12.1005L19.2775 10.9914C18.9717 10.5117 18.429 10.2297 17.8601 10.253L5.53172 10.7798C4.67289 10.8166 4.00012 11.5187 4.00012 12.3784V14.9675C4.00012 15.262 3.76133 15.5008 3.46681 15.5008C3.17229 15.5008 2.9335 15.262 2.9335 14.9675V12.3784C2.9335 10.9457 4.05479 9.77543 5.48619 9.71417L12.6871 9.40645L11.0131 6.26779H9.55133C8.60558 6.26779 7.83621 7.03715 7.83621 7.98291C7.83621 8.27743 7.59742 8.51622 7.3029 8.51622C7.00838 8.51622 6.7696 8.27743 6.7696 7.98291C6.7696 6.44905 8.01747 5.20117 9.55133 5.20117H11.3331C11.5301 5.20117 11.711 5.3097 11.8037 5.48349L13.869 9.35591L17.8146 9.18732C18.7613 9.14806 19.6672 9.61837 20.177 10.4181C20.5382 10.9848 23.0362 14.9037 23.381 15.4444L30.1772 14.7121C31.4743 14.5733 32.4042 15.9194 31.8232 17.0813ZM4.93328 22.2003C4.93328 22.7884 5.41179 23.2669 5.9999 23.2669C6.588 23.2669 7.06651 22.7884 7.06651 22.2003C7.06651 21.6122 6.588 21.1337 5.9999 21.1337C5.41179 21.1337 4.93328 21.6122 4.93328 22.2003ZM8.9331 22.2003C8.9331 22.7884 9.41161 23.2669 9.99971 23.2669C10.5878 23.2669 11.0663 22.7884 11.0663 22.2003C11.0663 21.6122 10.5878 21.1337 9.99971 21.1337C9.41161 21.1337 8.9331 21.6122 8.9331 22.2003ZM8.79977 13.6007C8.79977 13.1245 8.22146 12.8911 7.88914 13.2234C7.74348 13.3691 7.68802 13.5991 7.77382 13.8047C7.99807 14.3429 8.79977 14.1789 8.79977 13.6007ZM10.6037 14.0933C10.8835 13.9766 11.0023 13.6605 10.8923 13.3967C10.7609 13.081 10.3767 12.9731 10.1037 13.1573C9.89299 13.2961 9.80946 13.5709 9.90705 13.8046C10.0232 14.0834 10.3389 14.2036 10.6037 14.0933Z" fill="#111111"/>
</svg>
