<svg width="32" height="32" viewBox="0 0 32 32" fill="none" xmlns="http://www.w3.org/2000/svg">
<path d="M30.7093 9.41865L30.7093 9.41863C30.8413 9.35263 30.9919 9.33352 31.1362 9.36444C31.2805 9.39536 31.41 9.47447 31.5034 9.58876C31.5968 9.70306 31.6485 9.84574 31.65 9.99333C31.6515 10.1409 31.6027 10.2846 31.5117 10.4008L31.5904 10.4625L31.5117 10.4008L24.5117 19.3383C24.4509 19.416 24.3732 19.4787 24.2846 19.5219C24.1959 19.5651 24.0986 19.5875 24 19.5875H6.0625C5.92643 19.5875 5.79379 19.5448 5.68328 19.4654C5.57277 19.386 5.48996 19.274 5.44652 19.145L3.61852 13.7181L3.59559 13.65H3.52375H3.43513H3.35347L3.33715 13.73L2.79933 16.3649L2.77933 16.4628L2.87731 16.4828L3.12225 16.5329C3.29117 16.5673 3.43947 16.6675 3.53453 16.8113C3.62959 16.9551 3.66362 17.1308 3.62915 17.2997C3.59467 17.4687 3.4945 17.617 3.35068 17.712C3.20686 17.8071 3.03116 17.8411 2.86225 17.8066L2.84225 17.9046L2.86225 17.8066L2.61725 17.7566L2.51927 17.7366L2.49927 17.8346L2.44927 18.0796L2.44921 18.0798C2.43235 18.1637 2.39911 18.2434 2.3514 18.3143C2.30368 18.3853 2.24244 18.4462 2.17116 18.4934C2.09989 18.5407 2.01999 18.5734 1.93605 18.5897C1.8521 18.606 1.76576 18.6056 1.68197 18.5885C1.59818 18.5714 1.51859 18.538 1.44776 18.4901C1.37693 18.4421 1.31625 18.3807 1.2692 18.3093C1.22215 18.2379 1.18965 18.1579 1.17357 18.0739C1.15749 17.9899 1.15814 17.9036 1.17548 17.8198L1.17554 17.8196L1.22554 17.5746L1.24554 17.4766L1.14757 17.4566L0.902693 17.4066C0.819049 17.3896 0.739592 17.3562 0.668853 17.3084C0.598114 17.2606 0.537479 17.1994 0.49041 17.1282C0.443341 17.057 0.410758 16.9772 0.394524 16.8934C0.378289 16.8096 0.37872 16.7234 0.395792 16.6397C0.412864 16.5561 0.446243 16.4766 0.494022 16.4059C0.541801 16.3352 0.603046 16.2745 0.674259 16.2275C0.745472 16.1804 0.825258 16.1478 0.909063 16.1316C0.992867 16.1153 1.07905 16.1158 1.16269 16.1329L1.16269 16.1329L1.40769 16.1829L1.50567 16.2028L1.52567 16.1049L2.00217 13.77L2.02666 13.65H1.90419H1C0.827609 13.65 0.662279 13.5815 0.540381 13.4596C0.418482 13.3377 0.35 13.1724 0.35 13V11.0001C0.350646 10.43 0.577377 9.88352 0.980451 9.48045C1.38354 9.07736 1.93006 8.85063 2.50011 8.84999H3.49983C3.49984 8.84999 3.49986 8.84999 3.49988 8.84999C4.06991 8.85064 4.61641 9.07737 5.01949 9.48045C5.42257 9.88353 5.64931 10.4301 5.64994 11.0001V12.5375V12.6227L5.7341 12.6362C7.55192 12.9278 10.7439 13.35 13.9999 13.35C14.4685 13.35 14.9342 13.3382 15.3964 13.3171L15.4746 13.3135L15.4899 13.2368L15.6742 12.3149L15.6916 12.2284L15.6078 12.2004L14.1715 11.7216L14.0712 11.6881L14.0434 11.7901L13.9399 12.1696C13.6901 12.9904 12.4812 12.6614 12.6857 11.8278L13.4354 9.07899L13.4355 9.07835C13.4575 8.99549 13.4957 8.91781 13.5478 8.84977C13.6 8.78173 13.6651 8.72468 13.7394 8.68189C13.8137 8.63911 13.8957 8.61145 13.9807 8.60049C14.0657 8.58954 14.1521 8.59551 14.2348 8.61806C14.3175 8.64061 14.3949 8.6793 14.4626 8.7319C14.5303 8.7845 14.5869 8.84997 14.6292 8.92454C14.6715 8.99911 14.6986 9.08131 14.709 9.1664C14.7194 9.2515 14.7128 9.3378 14.6897 9.42035L14.6895 9.421L14.4387 10.3407L14.4138 10.432L14.5036 10.4619L15.8411 10.9078L15.9485 10.9436L15.9707 10.8325L16.3626 8.87249C16.3836 8.76778 16.43 8.66985 16.4978 8.58735C16.5656 8.50485 16.6526 8.44032 16.7513 8.39946C16.8499 8.35861 16.9571 8.34268 17.0634 8.3531C17.1697 8.36352 17.2717 8.39996 17.3606 8.4592C19.2573 9.72379 20.4452 11.3901 21.0894 12.5139L21.1255 12.5769L21.1966 12.5621C26.6473 11.4233 30.6495 9.44853 30.7093 9.41865ZM17.5664 10.2431L17.4366 10.1309L17.403 10.2991L16.8451 13.0895L16.8188 13.2211L16.9525 13.2087C17.864 13.1238 18.7561 13.0042 19.6202 12.8592L19.7685 12.8344L19.6882 12.7072C19.1061 11.7859 18.3911 10.9555 17.5664 10.2431ZM1.65 10.9999V11V12.25V12.35H1.75H4.25H4.35V12.25V11V10.9999C4.34976 10.7746 4.26014 10.5585 4.1008 10.3992C3.94147 10.2399 3.72544 10.1502 3.50011 10.15H3.5H2.5L2.49989 10.15C2.27456 10.1502 2.05853 10.2399 1.8992 10.3992C1.73986 10.5585 1.65024 10.7746 1.65 10.9999ZM23.6348 18.2875H23.6834L23.7135 18.2492L25.0944 16.4861L25.2437 16.2954L25.0033 16.3252C19.0458 17.0639 12.5129 17.1429 6.16777 16.7838L6.02016 16.7755L6.06736 16.9156L6.50654 18.2194L6.52948 18.2875H6.60131H23.6348ZM26.3567 14.8294L26.3964 14.8237L26.4212 14.7921L28.689 11.8965L28.9138 11.6095L28.574 11.7417C20.605 14.8412 13.1194 15.2701 5.19681 13.8677L5.03079 13.8383L5.08461 13.998L5.55142 15.384L5.57296 15.448L5.64032 15.4519C12.9075 15.8791 19.8314 15.7728 26.3567 14.8294Z" fill="#111111" stroke="white" stroke-width="0.2"/>
</svg>
