<svg width="32" height="32" viewBox="0 0 32 32" fill="none" xmlns="http://www.w3.org/2000/svg">
<path d="M31.0804 21.0165C27.3008 22.5064 22.1506 23.4094 17.3774 23.9411V21.2346L29.197 20.0864C29.5636 20.0509 29.8313 19.7251 29.7959 19.359C29.7848 19.2425 28.6108 7.52015 17.0649 2.12281C16.7441 1.97284 16.2701 2.05654 16.1205 2.59507C16.0774 2.75 12.9306 18.3334 6.11776 21.0133C5.32963 21.3233 5.80907 22.3379 6.35471 22.3024C6.37612 22.301 16.0443 21.3642 16.0443 21.3642V24.0816C9.77188 24.7054 4.4779 24.7232 4.38211 24.7232C3.87526 24.7232 3.57067 25.2907 3.80017 25.7138L4.99155 27.8549C4.50976 28.1493 4.20609 28.2995 3.50734 28.2982C1.97057 28.2954 1.45078 27.7446 0.648212 27.7446C0.280358 27.7446 -0.00986339 28.0609 0.000256831 28.429C0.0103118 28.7968 0.324691 29.1079 0.684645 29.077C0.836578 29.0832 1.84743 29.6313 3.49036 29.6313C4.60456 29.6313 5.19017 29.2957 5.79712 28.925C5.97974 28.8134 6.17725 28.6923 6.41354 28.569C7.51292 27.9926 8.59212 28.5247 9.99642 29.3412C11.3662 30.1376 12.5444 29.5583 13.4901 29.092C13.8833 28.8987 14.2546 28.7157 14.6188 28.6272C15.2736 28.4671 15.8949 28.7968 16.6145 29.1782C17.2501 29.5151 17.9706 29.8971 18.7989 29.9385C18.8796 29.9427 18.959 29.9447 19.0371 29.9447C20.2195 29.9447 21.1063 29.4919 21.9654 29.0536C22.1627 28.9528 22.3635 28.8502 22.5725 28.7509C23.2604 28.4245 23.9009 28.6533 24.8887 29.0549C25.0501 29.1207 25.2125 29.1868 25.3758 29.2489L25.4621 29.2821C26.2842 29.5965 27.2103 29.9253 28.2692 29.7419C29.1543 29.5886 30.4342 28.6949 31.1517 28.708C31.5116 28.6969 31.8204 28.4148 31.8234 28.0467C31.8263 27.6786 31.5301 27.375 31.162 27.375C30.0422 27.375 28.6645 28.3237 28.0075 28.435C27.576 28.5081 27.1498 28.4477 26.7114 28.3134L31.8415 22.0591C32.2817 21.5837 31.7324 20.7596 31.0804 21.0165ZM17.2459 3.70907C25.842 8.26931 27.9317 16.4553 28.3668 18.8279L9.13601 20.696C14.0611 16.4476 16.5742 6.68925 17.2459 3.70907ZM25.3886 27.819C24.3875 27.4121 23.2526 26.952 22 27.547C21.78 27.6516 21.5679 27.7599 21.3593 27.8663C20.4955 28.3069 19.814 28.6568 18.8656 28.6074C18.3332 28.5807 17.8018 28.2989 17.2386 28.0004C16.4006 27.5562 15.45 27.0521 14.3031 27.3319C13.7971 27.4552 13.3417 27.6792 12.9014 27.8959C11.9556 28.3623 11.3851 28.6064 10.6662 28.1884C9.47115 27.4939 7.86334 26.5607 6.16412 27.2202L5.50944 26.0437C9.21272 25.979 21.0676 25.5738 29.3064 23.045L25.3886 27.819Z" fill="#111111"/>
</svg>
