<svg width="32" height="32" viewBox="0 0 32 32" fill="none" xmlns="http://www.w3.org/2000/svg">
<g clip-path="url(#clip0_1439_315)">
<path d="M31.465 20.2646C30.0088 20.2304 28.5745 20.6242 27.3399 21.3973C27.1058 21.5264 26.8749 21.6539 26.6322 21.7706L31.744 15.6248C32.0148 15.3082 32.0764 14.8628 31.9018 14.4845C31.7272 14.1063 31.3483 13.8643 30.9317 13.8649H26.3052L20.6847 9.77711L20.4127 9.2337C19.8738 8.14707 18.7639 7.46129 17.551 7.46523H12.0622L11.529 6.3986H14.3992C14.6938 6.3986 14.9325 6.1598 14.9325 5.86532C14.9325 5.57083 14.6938 5.33203 14.3992 5.33203H8.53286C8.23832 5.33203 7.99958 5.57077 7.99958 5.86532C7.99958 6.15986 8.23832 6.3986 8.53286 6.3986H10.3365L10.8698 7.46523H8.53286C7.64928 7.46523 6.93295 8.18151 6.93295 9.06515C6.93295 9.94879 7.64922 10.6651 8.53286 10.6651H9.26989L7.66997 13.8649H7.19962C6.86408 13.8656 6.54822 14.0235 6.34635 14.2916L5.06642 15.9982H4.14909C3.96742 15.9981 3.79817 16.0905 3.70005 16.2435L1.10607 20.2849C0.922076 20.2742 0.736461 20.2646 0.533284 20.2646C0.238737 20.2646 0 20.5034 0 20.7979C0 21.0925 0.238737 21.3312 0.533284 21.3312C1.80853 21.3005 3.06428 21.6487 4.14166 22.3317C5.37597 23.105 6.81014 23.4988 8.26625 23.4644C9.40744 23.4975 10.54 23.2566 11.569 22.7621L11.5765 22.7584C11.8607 22.6213 12.1264 22.4757 12.3887 22.3317C13.4654 21.649 14.7204 21.3008 15.9949 21.3312C17.2707 21.3004 18.527 21.6485 19.6048 22.3317C20.84 23.1052 22.2751 23.499 23.7321 23.4644C25.1883 23.4986 26.6226 23.1048 27.8572 22.3317C28.9345 21.649 30.1899 21.3009 31.465 21.3312C31.7595 21.3312 31.9983 21.0925 31.9983 20.7979C31.9983 20.5034 31.7596 20.2646 31.465 20.2646ZM20.0923 10.6651L21.5589 11.7317H15.4659C15.1713 11.7317 14.9326 11.493 14.9326 11.1984V10.6651H20.0923V10.6651ZM8.53286 9.59849C8.23832 9.59849 7.99958 9.35976 7.99958 9.06521C7.99958 8.77066 8.23832 8.53193 8.53286 8.53193H17.5511C18.312 8.53061 19.0151 8.93784 19.3926 9.59856H8.53286V9.59849ZM10.4624 10.6651H13.866V11.1983C13.866 12.0819 14.5822 12.7983 15.4659 12.7983H23.0255L24.4921 13.8649H8.86247L10.4624 10.6651ZM7.19962 14.9315H18.1324V15.4648C18.1324 15.7594 17.8936 15.9981 17.5991 15.9981H6.39966L7.19962 14.9315ZM23.7321 22.3978C22.4556 22.4291 21.1985 22.0808 20.12 21.3973C18.8854 20.6242 17.4511 20.2304 15.9949 20.2646C14.5395 20.2304 13.1061 20.6243 11.8724 21.3973C10.7958 22.0801 9.54081 22.4284 8.26625 22.3978C6.99082 22.4286 5.73489 22.0804 4.65738 21.3973C3.92042 20.9521 3.11684 20.628 2.27726 20.4374L4.44033 17.0647H17.5991C18.4827 17.0647 19.199 16.3485 19.199 15.4648V14.9315H20.7989V16.5314C20.7989 16.826 21.0377 17.0647 21.3322 17.0647C21.6267 17.0647 21.8655 16.826 21.8655 16.5314V14.9315H22.9321V16.5314C22.9321 16.826 23.1708 17.0647 23.4654 17.0647C23.7599 17.0647 23.9987 16.826 23.9987 16.5314V14.9315H25.0653V16.5314C25.0653 16.826 25.304 17.0647 25.5986 17.0647C25.8931 17.0647 26.1319 16.826 26.1319 16.5314V14.9347H30.9268L24.7815 22.3295C24.4336 22.3754 24.083 22.3983 23.7321 22.3978Z" fill="#111111"/>
<path d="M31.4652 23.465C30.0089 23.4308 28.5746 23.8247 27.3401 24.5977C26.2627 25.2805 25.0073 25.6286 23.7322 25.5982C22.4565 25.6291 21.2002 25.2809 20.1223 24.5977C18.8871 23.8243 17.452 23.4304 15.9951 23.465C14.5397 23.4309 13.1062 23.8247 11.8726 24.5977C10.796 25.2806 9.54099 25.6288 8.26643 25.5982C6.991 25.629 5.73507 25.2808 4.65756 24.5977C3.42344 23.8246 1.98945 23.4307 0.533529 23.465C0.238982 23.465 0.000244141 23.7037 0.000244141 23.9983C0.000244141 24.2928 0.238982 24.5316 0.533529 24.5316C1.80877 24.5009 3.06452 24.849 4.1419 25.5321C5.37621 26.3053 6.81039 26.6992 8.2665 26.6648C9.72198 26.6991 11.1555 26.305 12.389 25.5316C13.4657 24.849 14.7207 24.5011 15.9952 24.5316C17.2709 24.5008 18.5272 24.849 19.6051 25.5321C20.8403 26.3056 22.2754 26.6994 23.7323 26.6649C25.1885 26.6991 26.6228 26.3052 27.8574 25.5321C28.9347 24.8494 30.1902 24.5013 31.4652 24.5316C31.7598 24.5316 31.9985 24.2929 31.9985 23.9983C31.9985 23.7038 31.7597 23.465 31.4652 23.465Z" fill="#111111"/>
</g>
<defs>
<clipPath id="clip0_1439_315">
<rect width="32" height="32" fill="white"/>
</clipPath>
</defs>
</svg>
