<svg width="32" height="32" viewBox="0 0 32 32" fill="none" xmlns="http://www.w3.org/2000/svg">
<g clip-path="url(#clip0_1453_537)">
<path d="M26.043 0C23.3085 0 21.0915 2.21709 21.0915 4.9515V7.57506H9.34088V4.9515C9.34088 2.95612 10.9667 1.33025 12.9621 1.33025C14.9575 1.33025 16.5834 2.95612 16.5834 4.9515C16.5834 5.32102 16.879 5.61663 17.2485 5.61663C17.618 5.61663 17.9136 5.32102 17.9136 4.9515C17.9136 2.21709 15.6965 0 12.9621 0C10.2277 0 8.01063 2.21709 8.01063 4.9515V21.7644C7.97368 22.1339 8.30624 22.4665 8.67575 22.4665C9.04527 22.4665 9.34088 22.1709 9.34088 21.8014V20.1386H21.1284V21.8014C21.1284 22.1709 21.424 22.4665 21.7935 22.4665C22.1631 22.4665 22.4587 22.1709 22.4587 21.8014V4.9515C22.4587 2.95612 24.0845 1.33025 26.0799 1.33025C28.0753 1.33025 29.6642 2.95612 29.6642 4.9515C29.6642 5.32102 29.9598 5.61663 30.3293 5.61663C30.6988 5.61663 30.9945 5.32102 30.9945 4.9515C30.9945 2.21709 28.7774 0 26.043 0ZM21.1284 18.7344H9.34088V16.3695H21.1284V18.7344ZM21.1284 15.0393H9.34088V12.6744H21.1284V15.0393ZM21.1284 11.2702H9.34088V8.90531H21.1284V11.2702Z" fill="#111111"/>
<path d="M29.3302 25.0531C29.1824 24.7206 28.776 24.5358 28.4434 24.7206C25.1178 26.1617 23.4919 25.4596 21.7552 24.7206C19.9815 23.9815 18.1709 23.2055 14.9561 24.7206C11.6305 26.1617 10.0046 25.4596 8.26788 24.7206C6.49421 23.9815 4.64663 23.2055 1.43185 24.7206C1.09929 24.8684 0.95148 25.2748 1.09929 25.6074C1.24709 25.94 1.65356 26.0878 1.98612 25.94C4.68358 24.6836 6.08774 25.2748 7.71361 25.9769C8.7852 26.4203 9.9307 26.9007 11.4457 26.9007C12.5543 26.9007 13.8476 26.642 15.4734 25.94C18.1709 24.6836 19.575 25.2748 21.2009 25.9769C22.2725 26.4203 23.418 26.9007 24.933 26.9007C26.0416 26.9007 27.3349 26.642 28.9607 25.94C29.2933 25.7921 29.478 25.3857 29.3302 25.0531Z" fill="#111111"/>
<path d="M29.2931 30.1527C29.1453 29.8202 28.7388 29.6354 28.4063 29.8202C25.0807 31.2613 23.4548 30.5592 21.7181 29.8202C19.9444 29.0811 18.1338 28.3052 14.919 29.8202C11.5934 31.2613 9.96749 30.5592 8.23077 29.8202C6.4571 29.0811 4.64647 28.3052 1.39474 29.8202C1.06218 29.968 0.914371 30.3744 1.06218 30.707C1.24693 31.0396 1.6534 31.1874 1.98596 31.0396C4.68342 29.7832 6.08758 30.3744 7.71345 31.0765C8.78504 31.5199 9.93054 32.0003 11.4455 32.0003C12.5541 32.0003 13.8474 31.7416 15.4733 31.0396C18.1707 29.7832 19.5749 30.3744 21.2007 31.0765C22.2723 31.5199 23.4178 32.0003 24.9328 32.0003C26.0414 32.0003 27.3347 31.7416 28.9606 31.0396C29.2931 30.8918 29.4779 30.4853 29.2931 30.1527Z" fill="#111111"/>
</g>
<defs>
<clipPath id="clip0_1453_537">
<rect width="32" height="32" fill="white"/>
</clipPath>
</defs>
</svg>
