<svg width="24" height="24" viewBox="0 0 24 24" fill="none" xmlns="http://www.w3.org/2000/svg">
<g clip-path="url(#clip0_232_292)">
<path d="M2.76067 18.5806L2.76067 18.5806C2.73018 18.8276 2.52724 18.9995 2.3052 18.9797L2.30513 18.9797C2.08277 18.9602 1.91288 18.756 1.92573 18.5076L1.87579 18.505L1.92573 18.5076L2.50092 7.36249H4.14709L2.76067 18.5806ZM24.05 5.67187C24.05 4.73962 23.2916 3.98125 22.3594 3.98125H7.73441C7.4479 3.98125 7.21566 4.21354 7.21566 4.5C7.21566 4.78645 7.4479 5.01875 7.73441 5.01875H22.3594C22.7195 5.01875 23.0125 5.31178 23.0125 5.67192C23.0125 6.032 22.7195 6.325 22.3594 6.325H1.64062C1.28053 6.325 0.987498 6.03196 0.987498 5.67187C0.987498 5.31178 1.28053 5.01875 1.64062 5.01875H3.51566C3.80217 5.01875 4.03441 4.78645 4.03441 4.5C4.03441 4.21354 3.80217 3.98125 3.51566 3.98125H1.64062C0.708368 3.98125 -0.05 4.73962 -0.05 5.67192C-0.05 6.54403 0.613758 7.26333 1.46254 7.35264L0.88958 18.4541C0.848079 19.2584 1.42905 19.9444 2.21465 20.0132C2.25733 20.017 2.29961 20.0188 2.34168 20.0188C3.07367 20.0188 3.69692 19.4637 3.79033 18.7079L4.96077 9.23758H19.0393L20.2097 18.7079C20.3031 19.4638 20.9263 20.0188 21.6584 20.0188C21.7003 20.0188 21.7428 20.017 21.7854 20.0132C22.5709 19.9445 23.152 19.2585 23.1105 18.4541L22.5375 7.35264C23.3862 7.26333 24.05 6.54398 24.05 5.67187ZM18.8076 7.36249L18.9111 8.20009H5.089L5.19252 7.36249H18.8076ZM21.695 18.9797C21.4726 18.9991 21.2699 18.8275 21.2393 18.5806L19.853 7.36249H21.4991L22.0744 18.5075C22.0872 18.756 21.9173 18.9602 21.695 18.9797Z" fill="#111111" stroke="#111111" stroke-width="0.1"/>
<path d="M5.62519 5.01875C5.9117 5.01875 6.14394 4.78645 6.14394 4.5C6.14394 4.21355 5.9117 3.98125 5.62519 3.98125H5.62481C5.33828 3.98125 5.10625 4.21357 5.10625 4.5C5.10625 4.78648 5.33871 5.01875 5.62519 5.01875Z" fill="#111111" stroke="#111111" stroke-width="0.1"/>
</g>
<defs>
<clipPath id="clip0_232_292">
<rect width="24" height="24" fill="white"/>
</clipPath>
</defs>
</svg>
