<svg width="24" height="24" viewBox="0 0 24 24" fill="none" xmlns="http://www.w3.org/2000/svg">
<path d="M22.6801 9.26981L2.25005 1.28231C2.11492 1.23096 1.96782 1.21976 1.82647 1.25005C1.68512 1.28035 1.55553 1.35085 1.45331 1.45307C1.35109 1.55529 1.28059 1.68487 1.2503 1.82623C1.22 1.96758 1.2312 2.11468 1.28255 2.24981L9.27005 22.6798C9.32504 22.8201 9.42099 22.9405 9.54539 23.0254C9.6698 23.1104 9.81691 23.1559 9.96755 23.1561H10.0501C10.214 23.1382 10.3676 23.0669 10.4869 22.953C10.6062 22.8391 10.6846 22.689 10.7101 22.5261L12.3226 12.3223L22.5263 10.7098C22.6894 10.6846 22.8395 10.6062 22.9536 10.487C23.0676 10.3677 23.1391 10.2142 23.1571 10.0502C23.175 9.88617 23.1384 9.7208 23.0528 9.57972C22.9672 9.43864 22.8375 9.32971 22.6838 9.26981H22.6801ZM11.5463 10.9236C11.3902 10.9485 11.2459 11.0221 11.1341 11.1339C11.0223 11.2457 10.9487 11.3899 10.9238 11.5461L9.6563 19.5561L3.30005 3.29981L19.5563 9.67481L11.5463 10.9236Z" fill="#111111"/>
</svg>
