<svg width="24" height="24" viewBox="0 0 24 24" fill="none" xmlns="http://www.w3.org/2000/svg">
<g clip-path="url(#clip0_232_299)">
<path d="M17.4569 3.45854L17.457 3.45862C17.4923 3.50112 18.3501 4.53938 19.2211 5.83115C19.8413 6.75093 20.3 7.54628 20.6035 8.22754C20.9074 8.90979 21.0527 9.47135 21.0527 9.92532C21.0527 12.1641 19.2312 13.9855 16.9925 13.9855C14.7537 13.9855 12.9323 12.1641 12.9323 9.92532C12.9323 9.47133 13.0776 8.90975 13.3815 8.22751C13.6849 7.54625 14.1437 6.75091 14.7638 5.83115C15.6348 4.53944 16.4927 3.50119 16.528 3.45853L16.9925 2.89795L17.4569 3.45854ZM17.0716 4.9092L16.9925 4.80666L16.9133 4.9092C16.2944 5.71097 15.6033 6.69216 15.0664 7.6051C14.798 8.0615 14.567 8.50263 14.4029 8.89691C14.2398 9.28879 14.1385 9.64397 14.1385 9.92532C14.1385 11.4991 15.4187 12.7793 16.9925 12.7793C18.5663 12.7793 19.8464 11.4991 19.8464 9.92532C19.8464 9.64397 19.7452 9.28879 19.5821 8.89692C19.4179 8.50264 19.187 8.06152 18.9186 7.60512C18.3817 6.69218 17.6906 5.71099 17.0716 4.9092Z" fill="#111111" stroke="white" stroke-width="0.2"/>
<path d="M8.73601 16.4573V16.5308L8.80621 16.5528C9.72715 16.8402 10.3972 17.701 10.3972 18.7148C10.3972 19.9633 9.38134 20.9791 8.13288 20.9791C6.88442 20.9791 5.86855 19.9633 5.86855 18.7148C5.86855 17.701 6.53862 16.8402 7.45955 16.5528L7.52976 16.5308V16.4573V3.56875H8.73601V16.4573ZM7.0748 18.7148C7.0748 19.2983 7.54933 19.7729 8.13288 19.7729C8.7164 19.7729 9.19091 19.2983 9.19091 18.7148C9.19091 18.1314 8.7164 17.6568 8.13288 17.6568C7.54938 17.6568 7.0748 18.1314 7.0748 18.7148Z" fill="#111111" stroke="white" stroke-width="0.2"/>
<path d="M11.361 14.6094V14.657L11.3979 14.687C12.6066 15.6681 13.318 17.1479 13.3179 18.7149C13.3179 20.1138 12.7696 21.4246 11.7735 22.4069L11.8437 22.4781L11.7735 22.4069C10.7953 23.3717 9.50554 23.9 8.13367 23.9C8.10888 23.9 8.08409 23.8999 8.05913 23.8995C5.25473 23.8605 2.96137 21.5458 2.94772 18.7406C2.94004 17.1633 3.65155 15.6739 4.86772 14.687L4.9047 14.657V14.6093V3.32812C4.9047 1.54824 6.35295 0.1 8.13283 0.1C9.91271 0.1 11.361 1.54824 11.361 3.32812V14.6094ZM8.07598 22.6934L8.07621 22.6934C9.14929 22.7059 10.1625 22.3015 10.9266 21.548L10.8605 21.481L10.9266 21.548C11.6907 20.7945 12.1117 19.7879 12.1118 18.7149C12.1118 17.4177 11.4763 16.1985 10.4119 15.4532L10.1548 15.2731V3.32812C10.1548 2.21319 9.24781 1.30625 8.13288 1.30625C7.01794 1.30625 6.111 2.21319 6.111 3.32812V15.2731L5.85383 15.4532C4.78316 16.2029 4.14767 17.4296 4.15402 18.7347C4.16445 20.8879 5.92344 22.6634 8.07598 22.6934Z" fill="#111111" stroke="white" stroke-width="0.2"/>
</g>
<defs>
<clipPath id="clip0_232_299">
<rect width="24" height="24" fill="white"/>
</clipPath>
</defs>
</svg>
