<svg width="48" height="48" viewBox="0 0 48 48" fill="none" xmlns="http://www.w3.org/2000/svg">
<g clip-path="url(#clip0_562_1388)">
<path d="M45.0715 39.669L45.1972 39.6187V39.4833V22.4984C45.1972 21.7809 45.7796 21.1985 46.4971 21.1985C47.2146 21.1985 47.797 21.7809 47.797 22.4984V40.4972C47.797 41.0296 47.4725 41.5059 46.9831 41.7067C46.9828 41.7068 46.9826 41.707 46.9823 41.7071L32.0475 47.6798H32.0406L32.0018 47.697L31.978 47.7076C31.6709 47.8305 31.3281 47.8305 31.021 47.7075L30.9973 47.697L30.9585 47.6798H30.9516L16.5732 41.9284L16.499 41.8987L16.4247 41.9284L1.98361 47.7031L2.05748 47.8878L1.98359 47.7031C1.82718 47.7657 1.6634 47.7968 1.49991 47.7968C1.2424 47.7968 0.990642 47.7215 0.772259 47.5733C0.415612 47.3312 0.2 46.9279 0.2 46.4969V19.4986C0.2 18.9659 0.52477 18.49 1.01656 18.2922L15.98 12.305L15.9803 12.3058L16.0073 12.2968L16.0074 12.2971L16.0188 12.2925C16.3278 12.1679 16.6731 12.1679 16.9821 12.2925L16.9821 12.2926L16.9867 12.2943L17.0107 12.3033L17.0447 12.316H17.0454L25.988 15.8954C25.988 15.8954 25.988 15.8955 25.9881 15.8955C26.657 16.1636 26.9812 16.9204 26.7138 17.585L26.7137 17.5853C26.4458 18.2536 25.6805 18.5757 25.0242 18.3111L25.0237 18.3109L18.0732 15.5301L17.7989 15.4204V15.7158V39.4803V39.6157L17.9246 39.666L29.9238 44.4657L30.1981 44.5754V44.28V28.498C30.1981 27.7805 30.7805 27.1981 31.498 27.1981C32.2155 27.1981 32.7979 27.7805 32.7979 28.498V44.283V44.5784L33.0722 44.4687L45.0715 39.669ZM15.932 12.1609L15.917 12.1235L15.917 12.1235L15.917 12.116L15.932 12.1609ZM15.0733 39.666L15.1991 39.6157V39.4803V15.7128V15.4174L14.9248 15.5271L2.92553 20.3268L2.79981 20.3771V20.5125V44.28V44.5754L3.07409 44.4657L15.0733 39.666Z" fill="#111111" stroke="white" stroke-width="0.4"/>
<path d="M33.2 10.4997C33.2 8.12933 35.1293 6.2 37.4997 6.2C39.8701 6.2 41.7994 8.12933 41.7994 10.4997C41.7994 12.8701 39.8701 14.7994 37.4997 14.7994C35.1293 14.7994 33.2 12.8701 33.2 10.4997ZM35.7998 10.4997C35.7998 11.4381 36.5613 12.1996 37.4997 12.1996C38.4381 12.1996 39.1996 11.4381 39.1996 10.4997C39.1996 9.56131 38.4381 8.79981 37.4997 8.79981C36.5613 8.79981 35.7998 9.56131 35.7998 10.4997Z" fill="#111111" stroke="white" stroke-width="0.4"/>
<path d="M37.3464 23.3385L37.4993 23.5198L37.6522 23.3385C39.2944 21.391 41.1753 18.9206 42.6469 16.576C43.3827 15.4039 44.0185 14.2595 44.471 13.2252C44.9215 12.1955 45.1989 11.2559 45.1989 10.4993C45.1989 6.25515 41.7435 2.79981 37.4993 2.79981C33.2551 2.79981 29.7998 6.25515 29.7998 10.4993C29.7998 11.2567 30.0772 12.1966 30.5277 13.2265C30.9802 14.261 31.616 15.4052 32.3518 16.5772C33.8234 18.9213 35.7043 21.3911 37.3464 23.3385ZM27.2 10.4993C27.2 4.82016 31.8202 0.2 37.4993 0.2C43.1785 0.2 47.7987 4.82016 47.7987 10.4993C47.7987 11.8009 47.2878 13.3747 46.4874 15.035C45.689 16.6908 44.6125 18.4125 43.5029 20.0042C41.2842 23.1869 38.945 25.8329 38.4666 26.3666C38.2189 26.6401 37.8677 26.7983 37.4993 26.7983C37.1309 26.7983 36.7796 26.64 36.5319 26.3664C36.0532 25.8323 33.7142 23.1865 31.4958 20.0042C30.3862 18.4125 29.3097 16.6908 28.5113 15.035C27.7108 13.3747 27.2 11.8009 27.2 10.4993Z" fill="#111111" stroke="white" stroke-width="0.4"/>
</g>
<defs>
<clipPath id="clip0_562_1388">
<rect width="48" height="48" fill="white"/>
</clipPath>
</defs>
</svg>
