<svg width="26" height="26" viewBox="0 0 26 26" fill="none" xmlns="http://www.w3.org/2000/svg">
<path d="M19.6428 14.173L19.6275 14.2206L19.6428 14.173C19.3702 14.0852 19.0778 14.235 18.99 14.5077C18.9022 14.7804 19.0521 15.0727 19.3248 15.1605L21.7315 15.9356C23.3549 16.4584 23.9732 17.8377 24.0105 18.9567C24.0478 20.0758 23.5226 21.4932 21.9376 22.1228L17.5057 23.8835C16.6909 24.2072 16.0114 23.8491 15.6454 23.4035C15.2794 22.9579 15.06 22.222 15.5358 21.4854C16.5545 19.9087 16.6449 17.8969 15.7717 16.235L15.0528 14.8668C15.5003 14.3749 15.7741 13.722 15.7741 13.0059C15.7741 12.5701 15.6722 12.1578 15.4919 11.7906L16.7175 11.1466C18.0483 10.4474 19.6596 10.5198 20.9223 11.3356C21.9154 11.977 23.1485 11.9067 24.062 11.1562C24.9755 10.4059 25.2841 9.20992 24.8476 8.11117L24.8011 8.12963L24.8476 8.11117L23.087 3.6793C22.7345 2.79212 22.1359 2.06875 21.3553 1.58829C20.6323 1.14332 19.7912 0.923535 18.9221 0.952541C18.0534 0.9815 17.2284 1.25673 16.5367 1.7488L16.5657 1.78954L16.5367 1.7488C15.7898 2.28014 15.2406 3.04177 14.948 3.95042L12.9226 10.2398C12.5195 10.2518 12.138 10.3503 11.7956 10.5175L11.1466 9.28241C10.4474 7.95158 10.5197 6.34035 11.3355 5.07761C11.977 4.08458 11.9066 2.85151 11.1562 1.93794C10.4058 1.02428 9.20991 0.715753 8.11121 1.15222L8.12967 1.19868L8.11121 1.15222L3.6793 2.91283C2.79211 3.26528 2.06874 3.86395 1.58828 4.64453C1.14332 5.36748 0.923575 6.20896 0.952534 7.07769C0.981493 7.94641 1.25672 8.7714 1.74879 9.46313L1.78953 9.43415L1.74879 9.46314C2.28013 10.21 3.04176 10.7592 3.95041 11.0518L7.07283 12.0573L7.08816 12.0097L7.07284 12.0573C7.12561 12.0743 7.17921 12.0824 7.23197 12.0824C7.4511 12.0824 7.65479 11.9424 7.72562 11.7225C7.81345 11.4498 7.66358 11.1576 7.39087 11.0697L4.26845 10.0643C2.64507 9.54151 2.02676 8.16221 1.9895 7.04314C1.9522 5.92407 2.47737 4.50667 4.06239 3.87703L4.04393 3.83056L4.06239 3.87703L8.49425 2.11641C9.30917 1.79277 9.9886 2.1508 10.3546 2.59635C10.7206 3.0419 10.94 3.77791 10.4642 4.51447C9.44554 6.09121 9.35515 8.10302 10.2283 9.76486L10.9555 11.1489C10.51 11.6403 10.2378 12.2917 10.2378 13.0059C10.2378 13.436 10.337 13.8432 10.5128 14.2067L9.28236 14.8532C7.95162 15.5525 6.34029 15.4801 5.07755 14.6643C4.08452 14.0228 2.85141 14.0932 1.93789 14.8436C1.02437 15.5941 0.71584 16.79 1.1523 17.8888L2.91292 22.3206C3.26537 23.2078 3.86403 23.9312 4.64462 24.4116L4.67083 24.3691L4.64462 24.4116C5.32539 24.8306 6.11121 25.0499 6.92602 25.0499C6.9765 25.0499 7.02711 25.049 7.07779 25.0474H7.07782C7.94655 25.0184 8.77153 24.7432 9.46327 24.2511L9.43429 24.2104L9.46327 24.2511C10.2101 23.7198 10.7593 22.9582 11.0519 22.0495L13.0733 15.7727C13.4805 15.7629 13.8661 15.6646 14.2118 15.4965L14.8534 16.7176C15.5526 18.0484 15.4802 19.6596 14.6644 20.9224C14.0229 21.9154 14.0934 23.1485 14.8438 24.062C15.3676 24.6998 16.1089 25.0431 16.8835 25.0431C17.2177 25.0431 17.5578 24.9791 17.8888 24.8477L22.3207 23.087C23.2079 22.7346 23.9313 22.1359 24.4117 21.3553C24.8567 20.6324 25.0764 19.7909 25.0475 18.9222C25.0185 18.0535 24.7433 17.2285 24.2512 16.5367L24.2105 16.5657L24.2512 16.5367C23.7199 15.7899 22.9582 15.2407 22.0496 14.9481L19.6428 14.173ZM18.9568 1.98942L18.9568 1.98942C20.0759 1.95183 21.4932 2.47728 22.1229 4.0623L23.8835 8.49416C24.2072 9.30908 23.8491 9.98847 23.4036 10.3545C22.958 10.7205 22.222 10.9399 21.4854 10.4641C19.9087 9.44541 17.8969 9.35506 16.2351 10.2282L14.8586 10.9514C14.5985 10.7166 14.2937 10.5307 13.9587 10.4074L15.9356 4.26837C16.4584 2.64499 17.8377 2.02668 18.9568 1.98942ZM10.0644 21.7315C9.54159 23.3548 8.1623 23.9731 7.04323 24.0104C5.92415 24.0474 4.50676 23.5225 3.87711 21.9375L2.1165 17.5057C1.79276 16.6908 2.15088 16.0114 2.59643 15.6453C3.04204 15.2793 3.77804 15.06 4.51456 15.5357C6.0913 16.5544 8.10306 16.6448 9.76495 15.7716L11.1408 15.0487C11.4 15.2856 11.7042 15.4739 12.0391 15.5992L10.0644 21.7315ZM13.006 14.7366C12.0517 14.7366 11.2753 13.9601 11.2753 13.0059C11.2753 12.0517 12.0517 11.2752 13.006 11.2752C13.9602 11.2752 14.7366 12.0517 14.7366 13.0059C14.7366 13.9601 13.9602 14.7366 13.006 14.7366Z" fill="#111111" stroke="#111111" stroke-width="0.1"/>
</svg>
