<svg width="24" height="24" viewBox="0 0 24 24" fill="none" xmlns="http://www.w3.org/2000/svg">
<g clip-path="url(#clip0_232_286)">
<path d="M21.5975 15.8495L20.5546 15.4189C20.5815 14.4367 19.5564 14.2781 19.4226 14.1871C19.6645 13.3675 19.7777 12.4814 19.7252 11.5556C19.7127 11.3348 19.5237 11.1658 19.3028 11.1785C19.0821 11.191 18.9132 11.3801 18.9257 11.6009C19.1515 15.5754 15.9863 18.9375 11.9998 18.9375C8.17457 18.9375 5.06251 15.8254 5.06251 12.0003C5.06251 8.17506 8.17457 5.063 11.9998 5.063C14.9477 5.063 17.5806 6.93188 18.5514 9.71348C18.6268 9.92964 18.8679 10.0385 19.0799 9.95256C19.4154 9.74496 20.5836 9.64301 20.5546 8.58175L21.5976 8.15114C23.8518 7.38036 21.9483 4.02767 20.1322 5.61308L19.2375 6.30123C19.009 6.16155 18.7318 6.10574 18.4613 6.15529C18.2438 6.19523 18.0999 6.40393 18.1398 6.62139C18.1798 6.83889 18.3886 6.98253 18.6059 6.94289C18.7178 6.92222 18.8336 6.96741 18.9009 7.0577C19.0346 7.23682 19.289 7.27175 19.466 7.13567C20.3226 6.47695 20.636 6.23637 20.6522 6.22211C21.4956 5.47509 22.4163 7.03338 21.33 7.39622C21.3092 7.40318 20.9657 7.54566 19.9458 7.96667C19.7392 8.05195 19.6425 8.28992 19.7308 8.49502C19.9031 8.8956 19.2822 8.97613 19.1583 9.0566C18.2067 6.74215 16.1992 5.05615 13.8172 4.47975C13.8054 4.323 14.1768 3.34802 13.3166 2.88213L13.4652 1.76356C13.9244 -0.572514 10.0692 -0.603143 10.5345 1.76356L10.6831 2.88208C9.81909 3.34997 10.1943 4.31684 10.1822 4.47819C8.71379 4.83308 7.40724 5.60742 6.39773 6.66748C6.25615 6.59921 5.59582 5.78849 4.76188 6.30068L3.86747 5.61277C2.07247 4.04558 0.122409 7.37135 2.40213 8.15084L3.44507 8.58145C3.4182 9.56364 4.44327 9.72224 4.57705 9.81327C3.88689 12.1519 4.33092 14.7262 5.87584 16.7243C5.7305 16.7989 5.35965 17.2927 5.0987 16.9428C4.96537 16.764 4.71093 16.7285 4.53366 16.8648C3.67724 17.5238 3.36359 17.7641 3.34748 17.7784C2.49001 18.5376 1.60027 16.9615 2.66963 16.6043C2.69045 16.5973 3.03393 16.4548 4.05385 16.0338C4.2604 15.9486 4.35709 15.7106 4.26886 15.5055C4.24508 15.4503 4.23878 15.3897 4.25054 15.3304C4.29358 15.1135 4.1527 14.9028 3.93579 14.8597C3.71893 14.8166 3.50818 14.9575 3.46509 15.1744C3.44893 15.2558 3.44207 15.3377 3.44422 15.4192L2.40203 15.8495C0.119806 16.63 2.07387 19.9537 3.86737 18.3877L4.76178 17.6998C5.59537 18.2117 6.2562 17.4013 6.39773 17.3329C7.40724 18.3929 8.71374 19.1673 10.1821 19.5221C10.1939 19.6775 9.82279 20.6524 10.683 21.1182L10.5344 22.2368C10.0748 24.5747 13.9299 24.6012 13.4651 22.2368L13.3166 21.1188C13.5043 21.0172 13.6615 20.8615 13.7651 20.6676C13.8692 20.4725 13.7955 20.2299 13.6004 20.1258C13.4054 20.0218 13.1628 20.0954 13.0586 20.2905C13.012 20.3778 12.9264 20.4367 12.8296 20.448C12.6072 20.4742 12.4501 20.6775 12.4795 20.8984C12.6197 21.9534 12.6734 22.3617 12.6776 22.3825C12.9067 23.5059 11.0966 23.4867 11.3218 22.3825C11.3261 22.3618 11.3797 21.9534 11.5199 20.8984C11.5493 20.6768 11.3915 20.4742 11.1698 20.448C10.7365 20.3972 10.9777 19.8178 10.97 19.6696C13.4564 20.0016 15.9007 19.119 17.6018 17.3328C17.7454 17.4021 18.4037 18.2118 19.2377 17.6996L20.1321 18.3875C21.9259 19.9536 23.8806 16.6302 21.5975 15.8495ZM11.1699 3.55246C11.3918 3.52629 11.5494 3.32345 11.52 3.10208C11.3798 2.04708 11.3262 1.63879 11.3219 1.61802C11.0967 0.514021 12.9065 0.495803 12.6777 1.61802C12.6735 1.63874 12.6198 2.04708 12.4796 3.10208C12.4502 3.32365 12.6079 3.52629 12.8297 3.55246C13.263 3.60336 13.0215 4.18116 13.0293 4.33236C12.3447 4.24047 11.6668 4.23797 10.9702 4.331C10.9781 4.1688 10.7374 3.60326 11.1699 3.55246ZM4.26881 8.49502C4.35709 8.28977 4.2602 8.0519 4.0538 7.96667C3.04019 7.54827 2.6902 7.40313 2.66958 7.39622C1.60077 7.03923 2.49011 5.46278 3.34743 6.22211C3.36349 6.23637 3.67709 6.4768 4.53361 7.13567C4.70998 7.27135 4.96467 7.23737 5.09865 7.0577C5.3601 6.70732 5.74196 7.20779 5.87569 7.27621C5.45694 7.81777 5.10846 8.41609 4.8437 9.0576C4.71043 8.97152 4.09709 8.89415 4.26881 8.49502ZM20.6522 17.7785C20.6361 17.7642 20.3225 17.5237 19.466 16.8649C19.2893 16.729 19.0347 16.7635 18.9009 16.9429C18.6395 17.2932 18.2582 16.793 18.1239 16.7244C18.5426 16.1828 18.8911 15.5845 19.1559 14.943C19.2891 15.0289 19.9024 15.1064 19.7307 15.5055C19.6424 15.7107 19.7393 15.9486 19.9457 16.0338C20.9593 16.4522 21.3093 16.5974 21.33 16.6043C22.3976 16.9609 21.5108 18.539 20.6522 17.7785Z" fill="#111111"/>
<path d="M12.0176 6.21878C8.93548 6.20942 6.2271 8.68147 6.21889 11.9862C6.21093 15.1837 8.80756 17.7717 11.9829 17.7814C15.1789 17.7911 17.7746 15.1958 17.7816 12.0122C17.7886 8.8192 15.1961 6.22844 12.0176 6.21878ZM8.5891 15.6255L10.6342 14.0318C10.7265 14.094 10.8233 14.1499 10.9238 14.1993L10.5659 16.7697C9.81807 16.5445 9.14387 16.1478 8.5891 15.6255ZM7.39941 13.9068L9.7453 12.9555C9.82437 13.1415 9.92597 13.3156 10.0464 13.4747L8.05033 15.0302C7.78723 14.6879 7.56747 14.3108 7.39941 13.9068ZM7.15223 10.8574L9.55757 11.8328C9.54911 11.9572 9.54911 12.0427 9.55757 12.1676L7.15228 13.143C6.97561 12.3936 6.97541 11.6076 7.15223 10.8574ZM10.3519 12.0001C10.3519 11.0912 11.0914 10.3517 12.0003 10.3517C12.9092 10.3517 13.6487 11.0912 13.6487 12.0001C13.6487 12.909 12.9092 13.6485 12.0003 13.6485C11.0914 13.6485 10.3519 12.909 10.3519 12.0001ZM14.443 11.8329L16.8484 10.8575C17.0249 11.6068 17.0251 12.3927 16.8483 13.1428L14.443 12.1674C14.4515 12.0429 14.4515 11.9575 14.443 11.8329ZM16.6012 10.0937L14.2553 11.045C14.1763 10.859 14.0747 10.6849 13.9543 10.5257L15.2403 9.52357C15.4147 9.38764 15.4459 9.13605 15.31 8.96164C15.1741 8.78722 14.9225 8.75609 14.7481 8.89192L13.3665 9.96855C13.2742 9.90629 13.1773 9.85038 13.0767 9.80094L13.4346 7.23049C14.8685 7.66245 16.0318 8.72456 16.6012 10.0937ZM12.6497 7.06188L12.3004 9.57002C12.0986 9.54524 11.9116 9.54404 11.7002 9.57002L11.3509 7.06188C11.782 7.00548 12.2179 7.00543 12.6497 7.06188ZM10.5659 7.23044L10.9238 9.80089C10.8232 9.85033 10.7264 9.90619 10.6341 9.9684L9.33626 8.95703C9.16184 8.82115 8.91025 8.85233 8.77432 9.02675C8.63844 9.20117 8.66962 9.45276 8.84404 9.58868L10.0463 10.5255C9.92592 10.6847 9.82437 10.8588 9.74525 11.0448L7.39936 10.0935C7.96881 8.72451 9.13206 7.6624 10.5659 7.23044ZM11.3509 16.9383L11.7002 14.4302C11.902 14.455 12.0889 14.4562 12.3004 14.4302L12.6497 16.9383C12.2186 16.9947 11.7827 16.9948 11.3509 16.9383ZM13.4347 16.7698L13.0767 14.1993C13.1773 14.1499 13.2742 14.094 13.3664 14.0318L14.4444 14.8719C14.6191 15.0079 14.8706 14.9763 15.0064 14.8021C15.1422 14.6277 15.1111 14.3761 14.9366 14.2402L13.9543 13.4747C14.0747 13.3155 14.1762 13.1414 14.2553 12.9554L16.6012 13.9067C16.0317 15.2757 14.8685 16.3378 13.4347 16.7698Z" fill="#111111"/>
</g>
<defs>
<clipPath id="clip0_232_286">
<rect width="24" height="24" fill="white"/>
</clipPath>
</defs>
</svg>
