<svg width="32" height="32" viewBox="0 0 32 32" fill="none" xmlns="http://www.w3.org/2000/svg">
<path d="M16.667 2.66602V22.666M16.667 18.666L24.0003 15.9993V11.3327M16.667 21.3327L9.33366 19.3327V15.3327M14.0003 5.33268L16.667 2.66602L19.3337 5.33268M16.667 29.3327C17.551 29.3327 18.3989 28.9815 19.024 28.3564C19.6491 27.7312 20.0003 26.8834 20.0003 25.9993C20.0003 25.1153 19.6491 24.2674 19.024 23.6423C18.3989 23.0172 17.551 22.666 16.667 22.666C15.7829 22.666 14.9351 23.0172 14.31 23.6423C13.6848 24.2674 13.3337 25.1153 13.3337 25.9993C13.3337 26.8834 13.6848 27.7312 14.31 28.3564C14.9351 28.9815 15.7829 29.3327 16.667 29.3327V29.3327ZM22.0003 7.33268V11.3327H26.0003V7.33268H22.0003ZM9.33366 14.666C10.0409 14.666 10.7192 14.3851 11.2193 13.885C11.7194 13.3849 12.0003 12.7066 12.0003 11.9993C12.0003 11.2921 11.7194 10.6138 11.2193 10.1137C10.7192 9.61363 10.0409 9.33268 9.33366 9.33268C8.62641 9.33268 7.94814 9.61363 7.44804 10.1137C6.94794 10.6138 6.66699 11.2921 6.66699 11.9993C6.66699 12.7066 6.94794 13.3849 7.44804 13.885C7.94814 14.3851 8.62641 14.666 9.33366 14.666V14.666Z" stroke="#111111" stroke-width="1.6" stroke-linecap="round" stroke-linejoin="round"/>
</svg>
