<svg width="24" height="24" viewBox="0 0 24 24" fill="none" xmlns="http://www.w3.org/2000/svg">
<path d="M13.44 17.4635C13.413 17.0746 13.0759 16.7813 12.6871 16.8084C12.2983 16.8354 12.005 17.1724 12.032 17.5612L12.0792 18.2411C12.1061 18.6295 12.4426 18.9232 12.832 18.8962C13.2208 18.8692 13.5142 18.5322 13.4872 18.1434L13.44 17.4635Z" fill="#111111"/>
<path d="M16.7841 15.7257C16.6268 15.3691 16.2101 15.2076 15.8536 15.3649C15.497 15.5222 15.3355 15.9388 15.4928 16.2954L15.7516 16.8819C15.9089 17.2384 16.3254 17.4001 16.6821 17.2427C17.0386 17.0854 17.2002 16.6688 17.0428 16.3123L16.7841 15.7257Z" fill="#111111"/>
<path d="M20.0523 14.0224C19.7834 13.7404 19.3367 13.7297 19.0546 13.9987C18.7726 14.2677 18.762 14.7144 19.0309 14.9964L19.5013 15.4896C19.7701 15.7716 20.2169 15.7823 20.499 15.5132C20.781 15.2443 20.7916 14.7976 20.5226 14.5155L20.0523 14.0224Z" fill="#111111"/>
<path d="M12.5968 21.1092C12.2075 21.1282 11.9074 21.4592 11.9264 21.8485L11.9608 22.5521C11.9798 22.9414 12.3108 23.2416 12.7001 23.2225C13.0893 23.2035 13.3895 22.8725 13.3704 22.4832L13.3361 21.7796C13.317 21.3903 12.9859 21.0905 12.5968 21.1092Z" fill="#111111"/>
<path d="M16.6967 20.1186C16.5859 19.7449 16.1931 19.5318 15.8195 19.6426C15.4458 19.7533 15.2327 20.1461 15.3435 20.5198L15.5319 21.1554C15.6428 21.5295 16.0359 21.7421 16.4091 21.6314C16.7828 21.5206 16.9959 21.1279 16.8851 20.7542L16.6967 20.1186Z" fill="#111111"/>
<path d="M20.0132 18.4595C19.8119 18.1257 19.3781 18.0184 19.0444 18.2197C18.7107 18.421 18.6034 18.8547 18.8047 19.1885L19.1471 19.7562C19.3484 20.0899 19.7821 20.1973 20.1159 19.9959C20.4496 19.7946 20.5569 19.3609 20.3556 19.0272L20.0132 18.4595Z" fill="#111111"/>
<path d="M23.7946 17.3311L23.2981 16.8313C23.0234 16.5549 22.5766 16.5534 22.3001 16.8281C22.0236 17.1028 22.0222 17.5496 22.2969 17.8261L22.7934 18.3258C23.0678 18.602 23.5147 18.604 23.7914 18.329C24.0678 18.0543 24.0692 17.6075 23.7946 17.3311Z" fill="#111111"/>
<path d="M20.2483 9.37819L20.0346 8.89833C19.6815 8.10501 18.8434 7.67619 18.0237 7.80458L17.8919 7.50847C17.1242 5.78445 15.3153 4.83508 13.5082 5.12412L13.0446 4.07083C11.9571 1.60029 9.51015 0.00390625 6.81074 0.00390625C3.05526 0.00390625 0 3.05921 0 6.81465V23.2913C0 23.681 0.315956 23.997 0.705679 23.997H3.52839C3.91812 23.997 4.23407 23.681 4.23407 23.2913V6.81465C4.23407 5.39388 5.38998 4.23798 6.81074 4.23798C7.83205 4.23798 8.7578 4.84185 9.16922 5.7766L9.6671 6.90738C8.37307 8.08073 7.95216 9.96786 8.68216 11.6083L8.81407 11.9043C8.18216 12.4169 7.9227 13.3208 8.28279 14.1297L8.49642 14.6095C8.96339 15.6586 10.1929 16.1379 11.2507 15.667L19.1908 12.1325C20.2417 11.6647 20.7161 10.4291 20.2483 9.37819ZM16.6026 8.08252L16.7079 8.31925L10.077 11.271L9.97153 11.0342C9.37005 9.68253 9.9624 8.09546 11.3353 7.48326L13.0498 6.71952C14.4426 6.10347 16.0062 6.74319 16.6026 8.08252ZM6.81074 2.82662C4.61175 2.82662 2.82272 4.61566 2.82272 6.81465V22.5856H1.41136V6.81465C1.41136 3.83744 3.83353 1.41526 6.81074 1.41526C8.95083 1.41526 10.8907 2.68083 11.7529 4.63942L12.1624 5.56978L10.8731 6.14411L10.4609 5.20801C9.82427 3.76136 8.39146 2.82662 6.81074 2.82662ZM18.6168 10.8431L10.6767 14.3777C10.3359 14.5293 9.93746 14.3764 9.78579 14.0356L9.57216 13.5557C9.46635 13.3181 9.57305 13.0402 9.81073 12.9344C10.4186 12.6638 17.9444 9.31369 18.124 9.23372C18.3611 9.12824 18.6398 9.23522 18.7454 9.47228L18.959 9.95214C19.1103 10.2921 18.9568 10.6918 18.6168 10.8431Z" fill="#111111"/>
</svg>
