<svg width="32" height="32" viewBox="0 0 32 32" fill="none" xmlns="http://www.w3.org/2000/svg">
<path d="M24.5191 29.0875V2.8125C24.5191 2.24033 24.0537 1.775 23.4816 1.775H7.8125C7.24033 1.775 6.775 2.24033 6.775 2.8125V29.1875C6.775 29.7597 7.24033 30.225 7.8125 30.225H23.4816C24.0538 30.225 24.5191 29.7597 24.5191 29.1875V29.0875H24.5191ZM7.8125 0.1H23.4816C24.9772 0.1 26.1941 1.31692 26.1941 2.8125V29.1875C26.1941 30.6831 24.9771 31.9 23.4816 31.9H7.8125C6.31692 31.9 5.1 30.6831 5.1 29.1875V2.8125C5.1 1.31692 6.31692 0.1 7.8125 0.1Z" fill="#111111" stroke="white" stroke-width="0.2"/>
<path d="M15.9985 3.5957C13.7749 3.5957 11.9658 5.40477 11.9658 7.62839C11.9658 9.85202 13.7749 11.6611 15.9985 11.6611C18.2221 11.6611 20.0312 9.85208 20.0312 7.62845C20.0312 5.40483 18.2221 3.5957 15.9985 3.5957ZM15.9985 9.78614C14.8088 9.78614 13.8408 8.8182 13.8408 7.62845C13.8408 6.4387 14.8088 5.4707 15.9985 5.4707C17.1883 5.4707 18.1562 6.43864 18.1562 7.62839C18.1562 8.81814 17.1883 9.78614 15.9985 9.78614Z" fill="#111111"/>
<path d="M16.0005 13.0605C11.925 13.0605 8.60938 16.3762 8.60938 20.4517C8.60938 24.5272 11.925 27.8427 16.0005 27.8427C20.076 27.8427 23.3916 24.5271 23.3916 20.4517C23.3916 16.3762 20.076 13.0605 16.0005 13.0605ZM16.0005 25.9677C12.9589 25.9677 10.4844 23.4932 10.4844 20.4517C10.4844 17.41 12.9589 14.9355 16.0005 14.9355C19.0421 14.9355 21.5166 17.41 21.5166 20.4517C21.5166 23.4932 19.0421 25.9677 16.0005 25.9677Z" fill="#111111"/>
<path d="M16.001 17.334C14.2816 17.334 12.8828 18.7328 12.8828 20.4522C12.8828 22.1715 14.2816 23.5703 16.001 23.5703C17.7204 23.5703 19.1192 22.1715 19.1192 20.4522C19.1192 18.7328 17.7204 17.334 16.001 17.334ZM16.001 21.6953C15.3155 21.6953 14.7578 21.1376 14.7578 20.4522C14.7578 19.7667 15.3155 19.209 16.001 19.209C16.6865 19.209 17.2442 19.7667 17.2442 20.4522C17.2442 21.1376 16.6865 21.6953 16.001 21.6953Z" fill="#111111"/>
</svg>
