<svg width="32" height="32" viewBox="0 0 32 32" fill="none" xmlns="http://www.w3.org/2000/svg">
<path d="M9.33301 28H22.6663" stroke="#111111" stroke-width="2" stroke-linecap="round" stroke-linejoin="round"/>
<path d="M2.66699 21.8667V4.8C2.66699 4.58783 2.75128 4.38434 2.90131 4.23431C3.05134 4.08429 3.25482 4 3.46699 4H28.5337C28.7458 4 28.9493 4.08429 29.0993 4.23431C29.2494 4.38434 29.3337 4.58783 29.3337 4.8V21.8667C29.3337 22.0788 29.2494 22.2823 29.0993 22.4324C28.9493 22.5824 28.7458 22.6667 28.5337 22.6667H3.46699C3.25482 22.6667 3.05134 22.5824 2.90131 22.4324C2.75128 22.2823 2.66699 22.0788 2.66699 21.8667V21.8667Z" stroke="#111111" stroke-width="2"/>
</svg>
