<svg width="13" height="14" viewBox="0 0 13 14" fill="none" xmlns="http://www.w3.org/2000/svg">
<path d="M11.7292 0.158557C11.0514 0.308706 10.3833 0.499621 9.72847 0.730261C9.08538 0.951276 8.4556 1.2093 7.8423 1.50304C7.29188 1.76559 6.76055 2.06644 6.25223 2.40336C5.74198 2.06619 5.20864 1.76534 4.65616 1.50304C4.0432 1.20916 3.41376 0.950975 2.77099 0.729761C2.11782 0.499483 1.45137 0.308736 0.775277 0.158557L0 0V7.74777C0 9.40596 0.658715 10.9962 1.83124 12.1688C3.00376 13.3413 4.59404 14 6.25223 14C7.91043 14 9.50071 13.3413 10.6732 12.1688C11.8457 10.9962 12.5045 9.40596 12.5045 7.74777V0L11.7292 0.158557ZM6.25223 4.02244C7.42215 5.00279 8.01386 6.11819 8.00886 7.32762C8.00886 7.5583 7.96342 7.78673 7.87514 7.99985C7.78687 8.21297 7.65747 8.40662 7.49435 8.56974C7.33124 8.73286 7.13759 8.86225 6.92446 8.95053C6.71134 9.03881 6.48292 9.08424 6.25223 9.08424C6.02155 9.08424 5.79312 9.03881 5.58 8.95053C5.36688 8.86225 5.17323 8.73286 5.01011 8.56974C4.84699 8.40662 4.7176 8.21297 4.62932 7.99985C4.54104 7.78673 4.4956 7.5583 4.4956 7.32762C4.4916 6.10718 5.08281 4.99779 6.25223 4.02244ZM11.2105 7.74777C11.2105 9.06311 10.688 10.3246 9.75789 11.2547C8.8278 12.1848 7.56633 12.7073 6.25098 12.7073C4.93564 12.7073 3.67416 12.1848 2.74407 11.2547C1.81398 10.3246 1.29146 9.06311 1.29146 7.74777V1.62058C2.64969 1.99007 3.95287 2.53822 5.16684 3.25066C4.71631 3.65225 4.32196 4.11272 3.99443 4.61965C3.47419 5.4259 3.19866 6.3656 3.20114 7.32512C3.20114 7.72579 3.28006 8.12254 3.43339 8.49272C3.58672 8.86289 3.81147 9.19924 4.09479 9.48256C4.37811 9.76588 4.71446 9.99062 5.08463 10.144C5.45481 10.2973 5.85156 10.3762 6.25223 10.3762C6.65291 10.3762 7.04966 10.2973 7.41983 10.144C7.79001 9.99062 8.12636 9.76588 8.40968 9.48256C8.693 9.19924 8.91774 8.86289 9.07107 8.49272C9.2244 8.12254 9.30332 7.72579 9.30332 7.32512C9.30586 6.36505 9.03015 5.42481 8.50954 4.61815C8.18189 4.11027 7.78719 3.64894 7.33612 3.24666C8.22039 2.72157 9.15673 2.2896 10.1301 1.9577C10.5398 1.81565 10.9099 1.70261 11.2095 1.62008L11.2105 7.74777Z" fill="#111111"/>
</svg>
