<svg width="155" height="34" viewBox="0 0 155 34" fill="none" xmlns="http://www.w3.org/2000/svg">
<path d="M28.14 0.3804C26.5139 0.74063 24.911 1.19866 23.34 1.752C21.7971 2.28225 20.2862 2.90128 18.8148 3.606C17.4943 4.23591 16.2195 4.95768 15 5.766C13.7758 4.95709 12.4963 4.2353 11.1708 3.606C9.70021 2.90096 8.19009 2.28153 6.648 1.7508C5.08095 1.19833 3.48205 0.740703 1.86 0.3804L0 0V18.588C0 22.5662 1.58035 26.3816 4.3934 29.1946C7.20644 32.0076 11.0218 33.588 15 33.588C18.9782 33.588 22.7936 32.0076 25.6066 29.1946C28.4196 26.3816 30 22.5662 30 18.588V0L28.14 0.3804ZM15 9.6504C17.8068 12.0024 19.2264 14.6784 19.2144 17.58C19.2144 18.1334 19.1054 18.6815 18.8936 19.1928C18.6818 19.7041 18.3714 20.1687 17.98 20.56C17.5887 20.9514 17.1241 21.2618 16.6128 21.4736C16.1015 21.6854 15.5534 21.7944 15 21.7944C14.4466 21.7944 13.8985 21.6854 13.3872 21.4736C12.8759 21.2618 12.4113 20.9514 12.02 20.56C11.6286 20.1687 11.3182 19.7041 11.1064 19.1928C10.8946 18.6815 10.7856 18.1334 10.7856 17.58C10.776 14.652 12.1944 11.9904 15 9.6504ZM26.8956 18.588C26.8956 21.7437 25.642 24.7702 23.4106 27.0016C21.1792 29.233 18.1527 30.4866 14.997 30.4866C11.8413 30.4866 8.81484 29.233 6.58342 27.0016C4.352 24.7702 3.0984 21.7437 3.0984 18.588V3.888C6.35699 4.77446 9.4835 6.08954 12.396 7.7988C11.3151 8.76227 10.369 9.86701 9.5832 11.0832C8.33508 13.0175 7.67404 15.272 7.68 17.574C7.68 18.5353 7.86934 19.4871 8.2372 20.3752C8.60507 21.2633 9.14425 22.0703 9.82398 22.75C10.5037 23.4297 11.3107 23.9689 12.1988 24.3368C13.0869 24.7047 14.0387 24.894 15 24.894C15.9613 24.894 16.9131 24.7047 17.8012 24.3368C18.6893 23.9689 19.4963 23.4297 20.176 22.75C20.8557 22.0703 21.3949 21.2633 21.7628 20.3752C22.1307 19.4871 22.32 18.5353 22.32 17.574C22.3261 15.2707 21.6646 13.0149 20.4156 11.0796C19.6295 9.86112 18.6826 8.75433 17.6004 7.7892C19.7219 6.52943 21.9683 5.49309 24.3036 4.6968C25.2864 4.356 26.1744 4.0848 26.8932 3.8868L26.8956 18.588Z" fill="#111111"/>
<path d="M54.0521 9.29997H48.8201V24H45.5921V9.29997H40.3601V6.64797H54.0521V9.29997Z" fill="#111111"/>
<path d="M56.4367 13.824C56.8207 13.088 57.2767 12.512 57.8047 12.096C58.3327 11.672 58.9567 11.46 59.6767 11.46C60.2447 11.46 60.7007 11.584 61.0447 11.832L60.8527 14.052C60.8127 14.196 60.7527 14.3 60.6727 14.364C60.6007 14.42 60.5007 14.448 60.3727 14.448C60.2527 14.448 60.0727 14.428 59.8327 14.388C59.6007 14.348 59.3727 14.328 59.1487 14.328C58.8207 14.328 58.5287 14.376 58.2727 14.472C58.0167 14.568 57.7847 14.708 57.5767 14.892C57.3767 15.068 57.1967 15.284 57.0367 15.54C56.8847 15.796 56.7407 16.088 56.6047 16.416V24H53.6407V11.688H55.3807C55.6847 11.688 55.8967 11.744 56.0167 11.856C56.1367 11.96 56.2167 12.152 56.2567 12.432L56.4367 13.824Z" fill="#111111"/>
<path d="M65.8658 11.688V24H62.8898V11.688H65.8658ZM66.2738 8.09997C66.2738 8.35597 66.2218 8.59597 66.1178 8.81997C66.0138 9.04397 65.8738 9.23997 65.6978 9.40797C65.5298 9.57597 65.3298 9.71197 65.0978 9.81597C64.8658 9.91197 64.6178 9.95997 64.3538 9.95997C64.0978 9.95997 63.8538 9.91197 63.6218 9.81597C63.3978 9.71197 63.2018 9.57597 63.0338 9.40797C62.8658 9.23997 62.7298 9.04397 62.6258 8.81997C62.5298 8.59597 62.4818 8.35597 62.4818 8.09997C62.4818 7.83597 62.5298 7.58797 62.6258 7.35597C62.7298 7.12397 62.8658 6.92397 63.0338 6.75597C63.2018 6.58797 63.3978 6.45597 63.6218 6.35997C63.8538 6.25597 64.0978 6.20397 64.3538 6.20397C64.6178 6.20397 64.8658 6.25597 65.0978 6.35997C65.3298 6.45597 65.5298 6.58797 65.6978 6.75597C65.8738 6.92397 66.0138 7.12397 66.1178 7.35597C66.2218 7.58797 66.2738 7.83597 66.2738 8.09997Z" fill="#111111"/>
<path d="M72.0515 20.808C72.3875 21.216 72.7515 21.504 73.1435 21.672C73.5435 21.84 73.9755 21.924 74.4395 21.924C74.8875 21.924 75.2915 21.84 75.6515 21.672C76.0115 21.504 76.3155 21.248 76.5635 20.904C76.8195 20.56 77.0155 20.128 77.1515 19.608C77.2875 19.08 77.3555 18.46 77.3555 17.748C77.3555 17.028 77.2955 16.42 77.1755 15.924C77.0635 15.42 76.8995 15.012 76.6835 14.7C76.4675 14.388 76.2035 14.16 75.8915 14.016C75.5875 13.872 75.2395 13.8 74.8475 13.8C74.2315 13.8 73.7075 13.932 73.2755 14.196C72.8435 14.452 72.4355 14.816 72.0515 15.288V20.808ZM71.8955 13.368C72.3995 12.8 72.9715 12.34 73.6115 11.988C74.2515 11.636 75.0035 11.46 75.8675 11.46C76.5395 11.46 77.1515 11.6 77.7035 11.88C78.2635 12.16 78.7435 12.568 79.1435 13.104C79.5515 13.632 79.8635 14.288 80.0795 15.072C80.3035 15.848 80.4155 16.74 80.4155 17.748C80.4155 18.668 80.2915 19.52 80.0435 20.304C79.7955 21.088 79.4395 21.768 78.9755 22.344C78.5195 22.92 77.9635 23.372 77.3075 23.7C76.6595 24.02 75.9315 24.18 75.1235 24.18C74.4355 24.18 73.8475 24.076 73.3595 23.868C72.8715 23.652 72.4355 23.356 72.0515 22.98V28.02H69.0875V11.688H70.8995C71.2835 11.688 71.5355 11.868 71.6555 12.228L71.8955 13.368Z" fill="#111111"/>
<path d="M86.2846 9.21597V14.352H92.7886V16.932H86.2846V24H83.0446V6.64797H93.9886V9.21597H86.2846Z" fill="#111111"/>
<path d="M99.4189 11.688V24H96.4429V11.688H99.4189ZM99.8269 8.09997C99.8269 8.35597 99.7749 8.59597 99.6709 8.81997C99.5669 9.04397 99.4269 9.23997 99.2509 9.40797C99.0829 9.57597 98.8829 9.71197 98.6509 9.81597C98.4189 9.91197 98.1709 9.95997 97.9069 9.95997C97.6509 9.95997 97.4069 9.91197 97.1749 9.81597C96.9509 9.71197 96.7549 9.57597 96.5869 9.40797C96.4189 9.23997 96.2829 9.04397 96.1789 8.81997C96.0829 8.59597 96.0349 8.35597 96.0349 8.09997C96.0349 7.83597 96.0829 7.58797 96.1789 7.35597C96.2829 7.12397 96.4189 6.92397 96.5869 6.75597C96.7549 6.58797 96.9509 6.45597 97.1749 6.35997C97.4069 6.25597 97.6509 6.20397 97.9069 6.20397C98.1709 6.20397 98.4189 6.25597 98.6509 6.35997C98.8829 6.45597 99.0829 6.58797 99.2509 6.75597C99.4269 6.92397 99.5669 7.12397 99.6709 7.35597C99.7749 7.58797 99.8269 7.83597 99.8269 8.09997Z" fill="#111111"/>
<path d="M105.413 13.2C105.661 12.952 105.921 12.724 106.193 12.516C106.473 12.3 106.765 12.12 107.069 11.976C107.381 11.824 107.713 11.708 108.065 11.628C108.417 11.54 108.801 11.496 109.217 11.496C109.889 11.496 110.485 11.612 111.005 11.844C111.525 12.068 111.957 12.388 112.301 12.804C112.653 13.212 112.917 13.704 113.093 14.28C113.277 14.848 113.369 15.476 113.369 16.164V24H110.405V16.164C110.405 15.412 110.233 14.832 109.889 14.424C109.545 14.008 109.021 13.8 108.317 13.8C107.805 13.8 107.325 13.916 106.877 14.148C106.429 14.38 106.005 14.696 105.605 15.096V24H102.641V11.688H104.453C104.837 11.688 105.089 11.868 105.209 12.228L105.413 13.2Z" fill="#111111"/>
<path d="M124.116 14.832C123.78 14.424 123.412 14.136 123.012 13.968C122.62 13.8 122.196 13.716 121.74 13.716C121.292 13.716 120.888 13.8 120.528 13.968C120.168 14.136 119.86 14.392 119.604 14.736C119.348 15.072 119.152 15.504 119.016 16.032C118.88 16.552 118.812 17.168 118.812 17.88C118.812 18.6 118.868 19.212 118.98 19.716C119.1 20.212 119.268 20.62 119.484 20.94C119.7 21.252 119.964 21.48 120.276 21.624C120.588 21.76 120.936 21.828 121.32 21.828C121.936 21.828 122.46 21.7 122.892 21.444C123.324 21.188 123.732 20.824 124.116 20.352V14.832ZM127.08 6.16797V24H125.268C124.876 24 124.628 23.82 124.524 23.46L124.272 22.272C123.776 22.84 123.204 23.3 122.556 23.652C121.916 24.004 121.168 24.18 120.312 24.18C119.64 24.18 119.024 24.04 118.464 23.76C117.904 23.48 117.42 23.076 117.012 22.548C116.612 22.012 116.3 21.352 116.076 20.568C115.86 19.784 115.752 18.888 115.752 17.88C115.752 16.968 115.876 16.12 116.124 15.336C116.372 14.552 116.728 13.872 117.192 13.296C117.656 12.72 118.212 12.272 118.86 11.952C119.508 11.624 120.236 11.46 121.044 11.46C121.732 11.46 122.32 11.568 122.808 11.784C123.296 12 123.732 12.292 124.116 12.66V6.16797H127.08Z" fill="#111111"/>
<path d="M138.137 16.428C138.137 16.044 138.081 15.684 137.969 15.348C137.865 15.004 137.705 14.704 137.489 14.448C137.273 14.192 136.997 13.992 136.661 13.848C136.333 13.696 135.949 13.62 135.509 13.62C134.653 13.62 133.977 13.864 133.481 14.352C132.993 14.84 132.681 15.532 132.545 16.428H138.137ZM132.485 18.216C132.533 18.848 132.645 19.396 132.821 19.86C132.997 20.316 133.229 20.696 133.517 21C133.805 21.296 134.145 21.52 134.537 21.672C134.937 21.816 135.377 21.888 135.857 21.888C136.337 21.888 136.749 21.832 137.093 21.72C137.445 21.608 137.749 21.484 138.005 21.348C138.269 21.212 138.497 21.088 138.689 20.976C138.889 20.864 139.081 20.808 139.265 20.808C139.513 20.808 139.697 20.9 139.817 21.084L140.669 22.164C140.341 22.548 139.973 22.872 139.565 23.136C139.157 23.392 138.729 23.6 138.281 23.76C137.841 23.912 137.389 24.02 136.925 24.084C136.469 24.148 136.025 24.18 135.593 24.18C134.737 24.18 133.941 24.04 133.205 23.76C132.469 23.472 131.829 23.052 131.285 22.5C130.741 21.94 130.313 21.252 130.001 20.436C129.689 19.612 129.533 18.66 129.533 17.58C129.533 16.74 129.669 15.952 129.941 15.216C130.213 14.472 130.601 13.828 131.105 13.284C131.617 12.732 132.237 12.296 132.965 11.976C133.701 11.656 134.529 11.496 135.449 11.496C136.225 11.496 136.941 11.62 137.597 11.868C138.253 12.116 138.817 12.48 139.289 12.96C139.761 13.432 140.129 14.016 140.393 14.712C140.665 15.4 140.801 16.188 140.801 17.076C140.801 17.524 140.753 17.828 140.657 17.988C140.561 18.14 140.377 18.216 140.105 18.216H132.485Z" fill="#111111"/>
<path d="M146.021 13.824C146.405 13.088 146.861 12.512 147.389 12.096C147.917 11.672 148.541 11.46 149.261 11.46C149.829 11.46 150.285 11.584 150.629 11.832L150.437 14.052C150.397 14.196 150.337 14.3 150.257 14.364C150.185 14.42 150.085 14.448 149.957 14.448C149.837 14.448 149.657 14.428 149.417 14.388C149.185 14.348 148.957 14.328 148.733 14.328C148.405 14.328 148.113 14.376 147.857 14.472C147.601 14.568 147.369 14.708 147.161 14.892C146.961 15.068 146.781 15.284 146.621 15.54C146.469 15.796 146.325 16.088 146.189 16.416V24H143.225V11.688H144.965C145.269 11.688 145.481 11.744 145.601 11.856C145.721 11.96 145.801 12.152 145.841 12.432L146.021 13.824Z" fill="#111111"/>
<path d="M151.009 22.368C151.009 22.12 151.053 21.884 151.141 21.66C151.237 21.436 151.365 21.244 151.525 21.084C151.685 20.924 151.877 20.796 152.101 20.7C152.325 20.604 152.565 20.556 152.821 20.556C153.077 20.556 153.313 20.604 153.529 20.7C153.753 20.796 153.945 20.924 154.105 21.084C154.273 21.244 154.405 21.436 154.501 21.66C154.597 21.884 154.645 22.12 154.645 22.368C154.645 22.624 154.597 22.864 154.501 23.088C154.405 23.304 154.273 23.492 154.105 23.652C153.945 23.812 153.753 23.936 153.529 24.024C153.313 24.12 153.077 24.168 152.821 24.168C152.565 24.168 152.325 24.12 152.101 24.024C151.877 23.936 151.685 23.812 151.525 23.652C151.365 23.492 151.237 23.304 151.141 23.088C151.053 22.864 151.009 22.624 151.009 22.368Z" fill="#111111"/>
</svg>
